<?xml version="1.0" encoding="UTF-8" standalone="no"?>
<!-- Created with Inkscape (http://www.inkscape.org/) -->

<svg
   width="152.39192mm"
   height="57.757641mm"
   viewBox="0 0 152.39192 57.757642"
   version="1.1"
   id="svg1"
   inkscape:version="1.4.2 (ebf0e940d0, 2025-05-08)"
   sodipodi:docname="threeOrbital.svg"
   xmlns:inkscape="http://www.inkscape.org/namespaces/inkscape"
   xmlns:sodipodi="http://sodipodi.sourceforge.net/DTD/sodipodi-0.dtd"
   xmlns="http://www.w3.org/2000/svg"
   xmlns:svg="http://www.w3.org/2000/svg">
  <sodipodi:namedview
     id="namedview1"
     pagecolor="#ffffff"
     bordercolor="#000000"
     borderopacity="0.25"
     inkscape:showpageshadow="2"
     inkscape:pageopacity="0.0"
     inkscape:pagecheckerboard="0"
     inkscape:deskcolor="#d1d1d1"
     inkscape:document-units="mm"
     showgrid="false"
     inkscape:zoom="0.75098906"
     inkscape:cx="-243.67865"
     inkscape:cy="-43.276263"
     inkscape:window-width="1920"
     inkscape:window-height="1128"
     inkscape:window-x="0"
     inkscape:window-y="0"
     inkscape:window-maximized="1"
     inkscape:current-layer="layer1" />
  <defs
     id="defs1">
    <inkscape:path-effect
       effect="spiro"
       id="path-effect18"
       is_visible="true"
       lpeversion="1" />
    <inkscape:path-effect
       effect="spiro"
       id="path-effect17"
       is_visible="true"
       lpeversion="1" />
    <rect
       x="130.65712"
       y="-132.49194"
       width="145.8398"
       height="97.870934"
       id="rect17" />
    <rect
       x="31.957855"
       y="-166.44717"
       width="240.11819"
       height="110.84409"
       id="rect16" />
    <rect
       x="223.70499"
       y="269.64441"
       width="241.68127"
       height="107.19197"
       id="rect14" />
    <rect
       x="-65.438934"
       y="480.67014"
       width="129.46552"
       height="69.67598"
       id="rect12" />
    <rect
       x="109.22181"
       y="558.34943"
       width="345.55521"
       height="234.45027"
       id="rect11" />
    <marker
       style="overflow:visible"
       id="RoundedArrow"
       refX="0"
       refY="0"
       orient="auto-start-reverse"
       inkscape:stockid="Rounded arrow"
       markerWidth="0.5"
       markerHeight="0.5"
       viewBox="0 0 1 1"
       inkscape:isstock="true"
       inkscape:collect="always"
       preserveAspectRatio="xMidYMid">
      <path
         transform="scale(0.7)"
         d="m -0.21114562,-4.1055728 6.42229122,3.21114561 a 1,1 90 0 1 0,1.78885438 L -0.21114562,4.1055728 A 1.236068,1.236068 31.717474 0 1 -2,3 v -6 a 1.236068,1.236068 148.28253 0 1 1.78885438,-1.1055728 z"
         style="fill:context-stroke;fill-rule:evenodd;stroke:none"
         id="path8" />
    </marker>
    <inkscape:path-effect
       effect="spiro"
       id="path-effect11"
       is_visible="true"
       lpeversion="1" />
    <marker
       style="overflow:visible"
       id="RoundedArrow-0"
       refX="0"
       refY="0"
       orient="auto-start-reverse"
       inkscape:stockid="Rounded arrow"
       markerWidth="0.5"
       markerHeight="0.5"
       viewBox="0 0 1 1"
       inkscape:isstock="true"
       inkscape:collect="always"
       preserveAspectRatio="xMidYMid">
      <path
         transform="scale(0.7)"
         d="m -0.21114562,-4.1055728 6.42229122,3.21114561 a 1,1 90 0 1 0,1.78885438 L -0.21114562,4.1055728 A 1.236068,1.236068 31.717474 0 1 -2,3 v -6 a 1.236068,1.236068 148.28253 0 1 1.78885438,-1.1055728 z"
         style="fill:context-stroke;fill-rule:evenodd;stroke:none"
         id="path8-6" />
    </marker>
    <inkscape:path-effect
       effect="spiro"
       id="path-effect11-1"
       is_visible="true"
       lpeversion="1" />
    <rect
       x="223.70499"
       y="269.64441"
       width="241.68127"
       height="107.19197"
       id="rect14-7" />
    <filter
       inkscape:collect="always"
       style="color-interpolation-filters:sRGB"
       id="filter15"
       x="-0.050223319"
       y="-0.095397485"
       width="1.1004466"
       height="1.190795">
      <feGaussianBlur
         inkscape:collect="always"
         stdDeviation="0.71085068"
         id="feGaussianBlur15" />
    </filter>
    <filter
       inkscape:collect="always"
       style="color-interpolation-filters:sRGB"
       id="filter15-2"
       x="-0.050223323"
       y="-0.095397484"
       width="1.1004466"
       height="1.190795">
      <feGaussianBlur
         inkscape:collect="always"
         stdDeviation="0.71085068"
         id="feGaussianBlur15-9" />
    </filter>
    <inkscape:path-effect
       effect="spiro"
       id="path-effect11-0"
       is_visible="true"
       lpeversion="1" />
    <inkscape:path-effect
       effect="spiro"
       id="path-effect11-1-5"
       is_visible="true"
       lpeversion="1" />
    <rect
       x="-65.438934"
       y="480.67014"
       width="129.46552"
       height="69.67598"
       id="rect12-0" />
    <rect
       x="223.70499"
       y="269.64441"
       width="241.68127"
       height="107.19197"
       id="rect14-9" />
    <rect
       x="223.70499"
       y="269.64441"
       width="241.68127"
       height="107.19197"
       id="rect14-7-6" />
    <rect
       x="31.957855"
       y="-166.44717"
       width="240.11819"
       height="110.84409"
       id="rect16-3" />
    <inkscape:path-effect
       effect="spiro"
       id="path-effect18-5"
       is_visible="true"
       lpeversion="1" />
  </defs>
  <g
     inkscape:label="Layer 1"
     inkscape:groupmode="layer"
     id="layer1"
     transform="translate(-286.49186,-61.267639)">
    <path
       style="fill:none;fill-opacity:1;stroke:#c08060;stroke-width:2;stroke-dasharray:4, 2;stroke-dashoffset:0;stroke-opacity:1;paint-order:markers stroke fill"
       d="m 123.07575,113.47272 h 24.76636"
       id="path15" />
    <path
       style="fill:none;fill-opacity:1;stroke:#658bb2;stroke-width:2;stroke-dasharray:none;stroke-dashoffset:0;stroke-opacity:1;paint-order:markers stroke fill"
       d="M 127.65586,114.20011 V 68.869991"
       id="path14" />
    <path
       style="fill:none;fill-opacity:1;stroke:#658bb2;stroke-width:2;stroke-dasharray:none;stroke-dashoffset:0;stroke-opacity:1;paint-order:markers stroke fill"
       d="M 101.19751,114.20011 V 68.869991"
       id="path13" />
    <rect
       style="opacity:0.807199;fill:#ffffff;fill-opacity:1;stroke:none;stroke-width:2.14165;stroke-dasharray:none;stroke-dashoffset:0;stroke-opacity:1;paint-order:markers stroke fill;filter:url(#filter15)"
       id="rect15"
       width="33.969112"
       height="17.883507"
       x="83.212952"
       y="84.330719" />
    <path
       style="fill:none;fill-opacity:1;stroke:#658bb2;stroke-width:2;stroke-dasharray:none;stroke-dashoffset:0;stroke-opacity:1;paint-order:markers stroke fill"
       d="M 74.739177,114.20011 V 68.869991"
       id="path12" />
    <path
       style="opacity:1;fill:none;fill-opacity:1;stroke:#408080;stroke-width:2;stroke-dasharray:4, 2;stroke-dashoffset:0;stroke-opacity:1;marker-end:url(#RoundedArrow);paint-order:markers stroke fill"
       d="m 22.548041,92.482195 c 0.22818,-3.999126 1.661555,-7.921692 4.065542,-11.125739 2.656184,-3.540177 6.490671,-6.180317 10.745551,-7.398579"
       id="path11"
       inkscape:path-effect="#path-effect11"
       inkscape:original-d="m 22.548041,92.482195 c 0.998221,-3.875442 3.06732,-7.426454 4.065542,-11.125739 0.99822,-3.699285 4.692861,-4.042308 10.745551,-7.398579"
       sodipodi:nodetypes="csc" />
    <path
       style="fill:none;fill-opacity:1;stroke:#408080;stroke-width:2;stroke-dasharray:4, 2;stroke-dashoffset:0;stroke-opacity:1;marker-end:url(#RoundedArrow-0);paint-order:markers stroke fill"
       d="m 22.548041,92.482195 c 0.22818,-3.999126 1.661555,-7.921692 4.065542,-11.125739 2.656184,-3.540177 6.490671,-6.180317 10.745551,-7.398579"
       id="path11-4"
       inkscape:path-effect="#path-effect11-1"
       inkscape:original-d="m 22.548041,92.482195 c 0.998221,-3.875442 3.06732,-7.426454 4.065542,-11.125739 0.99822,-3.699285 4.692861,-4.042308 10.745551,-7.398579"
       sodipodi:nodetypes="csc"
       transform="matrix(1,0,0,-1,5.5626585e-7,184.0836)" />
    <rect
       style="opacity:1;fill:#007080;fill-opacity:1;stroke:none;stroke-width:0.353465;stroke-opacity:1;paint-order:markers stroke fill"
       id="rect1"
       width="14.943686"
       height="14.943686"
       x="15.076199"
       y="84.834198"
       rx="1.9377224"
       ry="1.9377224" />
    <path
       style="opacity:1;fill:none;fill-opacity:1;stroke:#c08060;stroke-width:2;stroke-dasharray:none;stroke-dashoffset:0;stroke-opacity:1;paint-order:markers stroke fill"
       d="M 43.700772,71.139376 H 128.36045"
       id="path1" />
    <path
       style="fill:none;fill-opacity:1;stroke:#c08060;stroke-width:2;stroke-dasharray:4, 2;stroke-dashoffset:0;stroke-opacity:1;paint-order:markers stroke fill"
       d="m 123.07575,71.139374 h 24.76636"
       id="path1-3" />
    <path
       style="fill:none;fill-opacity:1;stroke:#658bb2;stroke-width:2;stroke-dasharray:none;stroke-dashoffset:0;stroke-opacity:1;paint-order:markers stroke fill"
       d="M 48.280842,114.20011 V 68.869991"
       id="path1-7" />
    <path
       style="opacity:1;fill:none;fill-opacity:1;stroke:#c08060;stroke-width:2;stroke-dasharray:none;stroke-dashoffset:0;stroke-opacity:1;paint-order:markers stroke fill"
       d="M 43.700772,113.47272 H 127.65582"
       id="path2" />
    <circle
       style="opacity:1;fill:#404040;fill-opacity:1;stroke:none;stroke-width:2;stroke-dasharray:none;stroke-opacity:1;paint-order:markers stroke fill"
       id="path3"
       cx="48.280842"
       cy="71.139374"
       r="4.580071" />
    <circle
       style="opacity:1;fill:#404040;fill-opacity:1;stroke:none;stroke-width:2;stroke-dasharray:none;stroke-opacity:1;paint-order:markers stroke fill"
       id="circle3"
       cx="74.739174"
       cy="71.139374"
       r="4.580071" />
    <circle
       style="opacity:1;fill:#404040;fill-opacity:1;stroke:none;stroke-width:2;stroke-dasharray:none;stroke-opacity:1;paint-order:markers stroke fill"
       id="circle4"
       cx="101.19749"
       cy="71.139374"
       r="4.580071" />
    <circle
       style="opacity:1;fill:#404040;fill-opacity:1;stroke:none;stroke-width:2;stroke-dasharray:none;stroke-opacity:1;paint-order:markers stroke fill"
       id="circle5"
       cx="127.65582"
       cy="71.139374"
       r="4.580071" />
    <circle
       style="opacity:1;fill:#404040;fill-opacity:1;stroke:none;stroke-width:2;stroke-dasharray:none;stroke-opacity:1;paint-order:markers stroke fill"
       id="circle7"
       cx="48.280842"
       cy="113.47269"
       r="4.580071" />
    <circle
       style="opacity:1;fill:#404040;fill-opacity:1;stroke:none;stroke-width:2;stroke-dasharray:none;stroke-opacity:1;paint-order:markers stroke fill"
       id="circle8"
       cx="74.739174"
       cy="113.47269"
       r="4.580071" />
    <circle
       style="opacity:1;fill:#404040;fill-opacity:1;stroke:none;stroke-width:2;stroke-dasharray:none;stroke-opacity:1;paint-order:markers stroke fill"
       id="circle9"
       cx="101.19749"
       cy="113.47269"
       r="4.580071" />
    <circle
       style="opacity:1;fill:#404040;fill-opacity:1;stroke:none;stroke-width:2;stroke-dasharray:none;stroke-opacity:1;paint-order:markers stroke fill"
       id="circle10"
       cx="127.65582"
       cy="113.47269"
       r="4.580071" />
    <text
       xml:space="preserve"
       transform="matrix(0.26458333,0,0,0.26458333,9.950173,-27.867383)"
       id="text11"
       style="font-style:normal;font-variant:normal;font-weight:500;font-stretch:condensed;font-size:26.6667px;line-height:0.9;font-family:'Barlow Condensed';-inkscape-font-specification:'Barlow Condensed, Medium Condensed';font-variant-ligatures:normal;font-variant-caps:normal;font-variant-numeric:normal;font-variant-east-asian:normal;text-align:center;text-decoration-color:#000000;writing-mode:lr-tb;direction:ltr;white-space:pre;shape-inside:url(#rect12);display:inline;opacity:1;fill:#ffffff;fill-opacity:1;stroke:none;stroke-width:7.55906;stroke-dasharray:15.1181, 7.55906;stroke-dashoffset:0;stroke-opacity:1;paint-order:markers stroke fill"
       x="61.439972"
       y="0"><tspan
         x="-40.786112"
         y="501.55884"
         id="tspan3"><tspan
           style="fill:#404040"
           id="tspan2">impurity 
</tspan></tspan><tspan
         x="-16.799393"
         y="525.55887"
         id="tspan5"><tspan
           style="fill:#404040"
           id="tspan4">site</tspan></tspan></text>
    <text
       xml:space="preserve"
       transform="matrix(0.26458333,0,0,0.26458333,10.036409,13.283044)"
       id="text14"
       style="font-style:normal;font-variant:normal;font-weight:500;font-stretch:condensed;font-size:26.6667px;line-height:0.9;font-family:'Barlow Condensed';-inkscape-font-specification:'Barlow Condensed, Medium Condensed';font-variant-ligatures:normal;font-variant-caps:normal;font-variant-numeric:normal;font-variant-east-asian:normal;text-align:center;text-decoration-color:#000000;writing-mode:lr-tb;direction:ltr;white-space:pre;shape-inside:url(#rect14);display:inline;opacity:1;fill:#658bb2;fill-opacity:1;stroke:none;stroke-width:7.55906;stroke-dasharray:7.55906, 7.55906;stroke-dashoffset:0;stroke-opacity:1;paint-order:markers stroke fill"><tspan
         x="294.50586"
         y="290.53345"
         id="tspan6">inter-layer 
</tspan><tspan
         x="308.42588"
         y="314.53348"
         id="tspan7">hopping</tspan></text>
    <text
       xml:space="preserve"
       transform="matrix(0.26458333,0,0,0.26458333,0.05510794,45.957914)"
       id="text14-7"
       style="font-style:normal;font-variant:normal;font-weight:500;font-stretch:condensed;font-size:26.6667px;line-height:0.9;font-family:'Barlow Condensed';-inkscape-font-specification:'Barlow Condensed, Medium Condensed';font-variant-ligatures:normal;font-variant-caps:normal;font-variant-numeric:normal;font-variant-east-asian:normal;text-align:center;text-decoration-color:#000000;writing-mode:lr-tb;direction:ltr;white-space:pre;shape-inside:url(#rect14-7);display:inline;fill:#c08060;fill-opacity:1;stroke:none;stroke-width:7.55906;stroke-dasharray:7.55906, 7.55906;stroke-dashoffset:0;stroke-opacity:1;paint-order:markers stroke fill"><tspan
         x="258.37249"
         y="290.53345"
         id="tspan8">intra-layer hopping</tspan></text>
    <text
       xml:space="preserve"
       transform="matrix(0.26458333,0,0,0.26458333,-28.63833,110.48323)"
       id="text15"
       style="font-style:normal;font-variant:normal;font-weight:500;font-stretch:condensed;font-size:26.6667px;line-height:0.9;font-family:'Barlow Condensed';-inkscape-font-specification:'Barlow Condensed, Medium Condensed';font-variant-ligatures:normal;font-variant-caps:normal;font-variant-numeric:normal;font-variant-east-asian:normal;text-align:center;text-decoration-color:#000000;writing-mode:lr-tb;direction:ltr;white-space:pre;shape-inside:url(#rect16);display:inline;opacity:1;fill:#408080;fill-opacity:1;stroke:none;stroke-width:7.55906;stroke-dasharray:none;stroke-dashoffset:0;stroke-opacity:1;paint-order:markers stroke fill"><tspan
         x="90.323205"
         y="-145.55835"
         id="tspan9">impurity-bath </tspan><tspan
         x="94.016549"
         y="-121.55832"
         id="tspan10">hybridisation</tspan></text>
    <path
       style="opacity:1;fill:#ffffff;fill-opacity:1;stroke:#ffffff;stroke-width:1.181;stroke-dasharray:none;stroke-dashoffset:0;stroke-opacity:1;marker-end:url(#RoundedArrow);paint-order:markers stroke fill"
       d="M 12.625454,63.043347 V 58.720335"
       id="path17"
       inkscape:path-effect="#path-effect18"
       inkscape:original-d="m 12.625454,63.043347 c 0,0.653948 0,-4.323012 0,-4.323012"
       transform="translate(9.9225876,32.88107)"
       sodipodi:nodetypes="cc" />
    <path
       style="baseline-shift:baseline;display:inline;overflow:visible;vector-effect:none;fill:#c08060;stroke-dasharray:4, 2;paint-order:markers stroke fill;enable-background:accumulate;stop-color:#000000;stop-opacity:1;opacity:1"
       d="m 414.11719,107.18164 v 2 h 4 v -2 z m 6,0 v 2 h 4 v -2 z m 6,0 v 2 h 4 v -2 z m 6,0 v 2 h 4 v -2 z m 6,0 v 2 h 0.76562 v -2 z"
       id="path15-1" />
    <path
       style="baseline-shift:baseline;display:inline;overflow:visible;vector-effect:none;fill:#658bb2;paint-order:markers stroke fill;enable-background:accumulate;stop-color:#000000;stop-opacity:1;opacity:1"
       d="M 417.69727,63.578125 V 108.9082 h 2 V 63.578125 Z"
       id="path14-5" />
    <path
       style="baseline-shift:baseline;display:inline;overflow:visible;vector-effect:none;fill:#658bb2;paint-order:markers stroke fill;enable-background:accumulate;stop-color:#000000;stop-opacity:1;opacity:1"
       d="M 391.23828,63.578125 V 108.9082 h 2 V 63.578125 Z"
       id="path13-9" />
    <path
       id="rect15-8"
       style="opacity:0.807199;fill:#ffffff;stroke-width:2.14165;paint-order:markers stroke fill;filter:url(#filter15-2)"
       d="m 374.25461,79.039055 h 33.96911 v 17.883507 h -33.96911 z" />
    <path
       style="baseline-shift:baseline;display:inline;overflow:visible;vector-effect:none;fill:#658bb2;paint-order:markers stroke fill;enable-background:accumulate;stop-color:#000000;stop-opacity:1;opacity:1"
       d="M 364.78125,63.578125 V 108.9082 h 2 V 63.578125 Z"
       id="path12-4" />
    <g
       id="path11-8"
       style="opacity:1"
       transform="translate(291.04167,-5.2916667)">
      <g
         id="g30">
        <path
           d="m 36.42597,71.23568 4.940669,0.923506 a 0.7,0.7 0 0 1 0.34468,1.203825 l -3.703206,3.398431 A 0.8652476,0.8652476 0 0 1 36.591264,76.362118 L 35.435169,72.324365 A 0.8652476,0.8652476 0 0 1 36.42597,71.23568 Z"
           style="baseline-shift:baseline;display:inline;overflow:visible;vector-effect:none;fill:#408080;fill-rule:evenodd;enable-background:accumulate;stop-color:#000000;stop-opacity:1"
           id="path30" />
      </g>
      <path
         style="baseline-shift:baseline;display:inline;overflow:visible;vector-effect:none;fill:#408080;stroke-dasharray:4, 2;paint-order:markers stroke fill;enable-background:accumulate;stop-color:#000000;stop-opacity:1"
         d="m 37.074219,73 -0.408203,0.121094 -0.414063,0.132812 -0.412109,0.140625 -0.05078,0.01953 0.6875,1.876954 0.03125,-0.01172 0.373047,-0.126953 0.375,-0.121094 0.388672,-0.115234 z m -3.208985,1.208984 -0.03516,0.01758 -0.390625,0.189454 -0.386719,0.199218 -0.384765,0.205078 -0.378907,0.214844 -0.373046,0.220703 -0.371094,0.228516 -0.365235,0.236328 -0.359375,0.242188 -0.355468,0.25 -0.199219,0.146484 1.181641,1.611328 0.183593,-0.132812 0.322266,-0.228516 0.328125,-0.220703 0.332031,-0.212891 0.335938,-0.208984 0.339843,-0.199219 0.34375,-0.195312 0.347657,-0.185547 0.351562,-0.179688 0.355469,-0.173828 0.01758,-0.0078 z m -5.228515,3.47461 -0.195313,0.173828 -0.318359,0.298828 -0.310547,0.302734 -0.304688,0.310547 -0.298828,0.316406 -0.292968,0.322266 -0.285157,0.328125 -0.279297,0.333984 -0.273437,0.339844 -0.263672,0.345703 -0.01563,0.01953 1.611328,1.185546 0.0039,-0.0039 0.238282,-0.3125 0.248047,-0.308594 0.251953,-0.302734 0.257812,-0.296875 0.265625,-0.291016 0.271485,-0.287109 0.27539,-0.28125 0.283203,-0.275391 0.28711,-0.269531 0.18164,-0.162109 z m -4.00586,4.828125 -0.126953,0.210937 -0.197265,0.341797 -0.189454,0.34375 -0.185546,0.347656 -0.177735,0.351563 -0.169922,0.355469 -0.166015,0.357421 -0.158203,0.359375 -0.150391,0.363282 -0.144531,0.367187 -0.138672,0.367188 -0.0059,0.01563 1.884766,0.669922 0.125,-0.333985 0.130859,-0.332031 0.138672,-0.330078 0.142578,-0.326172 0.150391,-0.324219 0.15625,-0.322265 0.160156,-0.31836 0.167969,-0.316406 0.171875,-0.3125 0.177734,-0.308594 0.119141,-0.197265 z m -2.43164,5.777343 -0.0625,0.246094 -0.08984,0.382813 -0.08398,0.384765 -0.07813,0.386719 -0.06836,0.388672 -0.0625,0.388672 -0.05469,0.388672 -0.04883,0.392578 -0.04102,0.390625 -0.0332,0.392578 -0.02539,0.384766 1.994141,0.132812 0.02539,-0.365234 0.0293,-0.355469 0.03711,-0.355469 0.04492,-0.353515 0.04883,-0.353516 0.05664,-0.353516 0.06445,-0.351562 0.06836,-0.34961 0.07617,-0.349609 0.08203,-0.347656 0.05859,-0.228516 z"
         id="path31" />
    </g>
    <g
       id="path11-4-1"
       style="opacity:1"
       transform="matrix(1,0,0,-1,291.04167,178.79193)">
      <g
         id="g28">
        <path
           d="m 36.42597,71.23568 4.940669,0.923506 a 0.7,0.7 0 0 1 0.34468,1.203825 l -3.703206,3.398431 A 0.8652476,0.8652476 0 0 1 36.591264,76.362118 L 35.435169,72.324365 A 0.8652476,0.8652476 0 0 1 36.42597,71.23568 Z"
           style="baseline-shift:baseline;display:inline;overflow:visible;vector-effect:none;fill:#408080;fill-rule:evenodd;enable-background:accumulate;stop-color:#000000;stop-opacity:1"
           id="path28" />
      </g>
      <path
         style="baseline-shift:baseline;display:inline;overflow:visible;vector-effect:none;fill:#408080;stroke-dasharray:4, 2;paint-order:markers stroke fill;enable-background:accumulate;stop-color:#000000;stop-opacity:1"
         d="m 37.074219,73 -0.408203,0.121094 -0.414063,0.132812 -0.412109,0.140625 -0.05078,0.01953 0.6875,1.876954 0.03125,-0.01172 0.373047,-0.126953 0.375,-0.121094 0.388672,-0.115234 z m -3.208985,1.208984 -0.03516,0.01758 -0.390625,0.189454 -0.386719,0.199218 -0.384765,0.205078 -0.378907,0.214844 -0.373046,0.220703 -0.371094,0.228516 -0.365235,0.236328 -0.359375,0.242188 -0.355468,0.25 -0.199219,0.146484 1.181641,1.611328 0.183593,-0.132812 0.322266,-0.228516 0.328125,-0.220703 0.332031,-0.212891 0.335938,-0.208984 0.339843,-0.199219 0.34375,-0.195312 0.347657,-0.185547 0.351562,-0.179688 0.355469,-0.173828 0.01758,-0.0078 z m -5.228515,3.47461 -0.195313,0.173828 -0.318359,0.298828 -0.310547,0.302734 -0.304688,0.310547 -0.298828,0.316406 -0.292968,0.322266 -0.285157,0.328125 -0.279297,0.333984 -0.273437,0.339844 -0.263672,0.345703 -0.01563,0.01953 1.611328,1.185546 0.0039,-0.0039 0.238282,-0.3125 0.248047,-0.308594 0.251953,-0.302734 0.257812,-0.296875 0.265625,-0.291016 0.271485,-0.287109 0.27539,-0.28125 0.283203,-0.275391 0.28711,-0.269531 0.18164,-0.162109 z m -4.00586,4.828125 -0.126953,0.210937 -0.197265,0.341797 -0.189454,0.34375 -0.185546,0.347656 -0.177735,0.351563 -0.169922,0.355469 -0.166015,0.357421 -0.158203,0.359375 -0.150391,0.363282 -0.144531,0.367187 -0.138672,0.367188 -0.0059,0.01563 1.884766,0.669922 0.125,-0.333985 0.130859,-0.332031 0.138672,-0.330078 0.142578,-0.326172 0.150391,-0.324219 0.15625,-0.322265 0.160156,-0.31836 0.167969,-0.316406 0.171875,-0.3125 0.177734,-0.308594 0.119141,-0.197265 z m -2.43164,5.777343 -0.0625,0.246094 -0.08984,0.382813 -0.08398,0.384765 -0.07813,0.386719 -0.06836,0.388672 -0.0625,0.388672 -0.05469,0.388672 -0.04883,0.392578 -0.04102,0.390625 -0.0332,0.392578 -0.02539,0.384766 1.994141,0.132812 0.02539,-0.365234 0.0293,-0.355469 0.03711,-0.355469 0.04492,-0.353515 0.04883,-0.353516 0.05664,-0.353516 0.06445,-0.351562 0.06836,-0.34961 0.07617,-0.349609 0.08203,-0.347656 0.05859,-0.228516 z"
         id="path29" />
    </g>
    <path
       id="rect1-0"
       style="fill:#007080;stroke-width:0.353465;paint-order:markers stroke fill"
       d="m 308.05558,79.542534 h 11.06824 c 1.0735,0 1.93772,0.864224 1.93772,1.937722 v 11.068241 c 0,1.073498 -0.86422,1.937722 -1.93772,1.937722 h -11.06824 c -1.0735,0 -1.93772,-0.864224 -1.93772,-1.937722 V 81.480256 c 0,-1.073498 0.86422,-1.937722 1.93772,-1.937722 z" />
    <path
       style="baseline-shift:baseline;display:inline;overflow:visible;vector-effect:none;fill:#c08060;paint-order:markers stroke fill;enable-background:accumulate;stop-color:#000000;stop-opacity:1;opacity:1"
       d="m 334.74219,64.847656 v 2 h 84.66015 v -2 z"
       id="path2-3" />
    <path
       style="baseline-shift:baseline;display:inline;overflow:visible;vector-effect:none;fill:#c08060;stroke-dasharray:4, 2;paint-order:markers stroke fill;enable-background:accumulate;stop-color:#000000;stop-opacity:1;opacity:1"
       d="m 414.11719,64.847656 v 2 h 4 v -2 z m 6,0 v 2 h 4 v -2 z m 6,0 v 2 h 4 v -2 z m 6,0 v 2 h 4 v -2 z m 6,0 v 2 h 0.76562 v -2 z"
       id="path1-3-0" />
    <path
       style="baseline-shift:baseline;display:inline;overflow:visible;vector-effect:none;fill:#658bb2;paint-order:markers stroke fill;enable-background:accumulate;stop-color:#000000;stop-opacity:1;opacity:1"
       d="M 338.32227,63.578125 V 108.9082 h 2 V 63.578125 Z"
       id="path1-7-4" />
    <path
       style="baseline-shift:baseline;display:inline;overflow:visible;vector-effect:none;fill:#c08060;paint-order:markers stroke fill;enable-background:accumulate;stop-color:#000000;stop-opacity:1;opacity:1"
       d="m 334.74219,107.18164 v 2 h 83.95508 v -2 z"
       id="path3-4" />
    <path
       id="circle3-4"
       style="fill:#404040;stroke-width:2;paint-order:markers stroke fill"
       d="m 343.90258,65.84771 a 4.580071,4.580071 0 0 1 -4.58007,4.580071 4.580071,4.580071 0 0 1 -4.58007,-4.580071 4.580071,4.580071 0 0 1 4.58007,-4.580071 4.580071,4.580071 0 0 1 4.58007,4.580071 z" />
    <path
       id="circle4-4"
       style="fill:#404040;stroke-width:2;paint-order:markers stroke fill"
       d="m 370.36092,65.84771 a 4.580071,4.580071 0 0 1 -4.58007,4.580071 4.580071,4.580071 0 0 1 -4.58007,-4.580071 4.580071,4.580071 0 0 1 4.58007,-4.580071 4.580071,4.580071 0 0 1 4.58007,4.580071 z" />
    <path
       id="circle5-7"
       style="fill:#404040;stroke-width:2;paint-order:markers stroke fill"
       d="m 396.81924,65.84771 a 4.580071,4.580071 0 0 1 -4.58007,4.580071 4.580071,4.580071 0 0 1 -4.58007,-4.580071 4.580071,4.580071 0 0 1 4.58007,-4.580071 4.580071,4.580071 0 0 1 4.58007,4.580071 z" />
    <path
       id="circle6"
       style="fill:#404040;stroke-width:2;paint-order:markers stroke fill"
       d="m 423.27755,65.84771 a 4.580071,4.580071 0 0 1 -4.58007,4.580071 4.580071,4.580071 0 0 1 -4.58007,-4.580071 4.580071,4.580071 0 0 1 4.58007,-4.580071 4.580071,4.580071 0 0 1 4.58007,4.580071 z" />
    <path
       id="circle7-6"
       style="fill:#404040;stroke-width:2;paint-order:markers stroke fill"
       d="m 343.90258,108.18102 a 4.580071,4.580071 0 0 1 -4.58007,4.58007 4.580071,4.580071 0 0 1 -4.58007,-4.58007 4.580071,4.580071 0 0 1 4.58007,-4.58007 4.580071,4.580071 0 0 1 4.58007,4.58007 z" />
    <path
       id="circle8-3"
       style="fill:#404040;stroke-width:2;paint-order:markers stroke fill"
       d="m 370.36092,108.18102 a 4.580071,4.580071 0 0 1 -4.58007,4.58007 4.580071,4.580071 0 0 1 -4.58007,-4.58007 4.580071,4.580071 0 0 1 4.58007,-4.58007 4.580071,4.580071 0 0 1 4.58007,4.58007 z" />
    <path
       id="circle9-1"
       style="fill:#404040;stroke-width:2;paint-order:markers stroke fill"
       d="m 396.81924,108.18102 a 4.580071,4.580071 0 0 1 -4.58007,4.58007 4.580071,4.580071 0 0 1 -4.58007,-4.58007 4.580071,4.580071 0 0 1 4.58007,-4.58007 4.580071,4.580071 0 0 1 4.58007,4.58007 z" />
    <path
       id="circle10-7"
       style="fill:#404040;stroke-width:2;paint-order:markers stroke fill"
       d="m 423.27755,108.18102 a 4.580071,4.580071 0 0 1 -4.58007,4.58007 4.580071,4.580071 0 0 1 -4.58007,-4.58007 4.580071,4.580071 0 0 1 4.58007,-4.58007 4.580071,4.580071 0 0 1 4.58007,4.58007 z" />
    <g
       id="text11-5"
       style="font-weight:500;font-stretch:condensed;font-size:26.6667px;line-height:0.9;font-family:'Barlow Condensed';-inkscape-font-specification:'Barlow Condensed, Medium Condensed';text-align:center;white-space:pre;fill:#ffffff;stroke-width:7.55906;stroke-dasharray:15.1181, 7.55906;paint-order:markers stroke fill"
       transform="matrix(0.26458333,0,0,0.26458333,300.99184,-33.15905)"
       aria-label="impurity &#10;site">
      <path
         style="fill:#404040"
         d="m -38.359443,485.85215 q -0.746667,0 -1.226668,-0.48 -0.48,-0.48 -0.48,-1.22667 0,-0.74667 0.48,-1.22667 0.480001,-0.48 1.226668,-0.48 0.773335,0 1.226669,0.48 0.48,0.45334 0.48,1.22667 0,0.74667 -0.48,1.22667 -0.480001,0.48 -1.226669,0.48 z m -1.253334,2.4 q 0,-0.26666 0.266667,-0.26666 h 2.026669 q 0.266667,0 0.266667,0.26666 v 13.04002 q 0,0.26667 -0.266667,0.26667 h -2.026669 q -0.266667,0 -0.266667,-0.26667 z m 16.293354,-0.45333 q 1.680002,0 2.560003,1.2 0.906668,1.17334 0.906668,3.30667 v 8.98668 q 0,0.26667 -0.266667,0.26667 h -2.000002 q -0.266667,0 -0.266667,-0.26667 v -8.80001 q 0,-1.17334 -0.480001,-1.81334 -0.480001,-0.66666 -1.280002,-0.66666 -0.853334,0 -1.360001,0.66666 -0.506668,0.64 -0.506668,1.78667 v 8.82668 q 0,0.26667 -0.266667,0.26667 h -2.000002 q -0.266667,0 -0.266667,-0.26667 v -8.80001 q 0,-1.17334 -0.480001,-1.81334 -0.48,-0.66666 -1.280001,-0.66666 -0.853335,0 -1.360002,0.66666 -0.506667,0.64 -0.506667,1.78667 v 8.82668 q 0,0.26667 -0.266667,0.26667 h -2.000003 q -0.266667,0 -0.266667,-0.26667 v -13.04002 q 0,-0.26666 0.266667,-0.26666 h 2.000003 q 0.266667,0 0.266667,0.26666 v 0.66667 q 0,0.0533 0.02667,0.08 0.05333,0 0.106667,-0.0533 0.533334,-0.58667 1.226668,-0.85334 0.693334,-0.29333 1.360002,-0.29333 2.026669,0 2.90667,1.76 0.02667,0.0533 0.08,0.0533 0.05333,-0.0267 0.08,-0.13334 0.56,-0.88 1.386668,-1.28 0.826668,-0.4 1.680002,-0.4 z m 11.013338,-0.0267 q 1.760002,0 2.7733367,1.17334 1.0400013,1.14667 1.0400013,3.04 v 5.54668 q 0,1.97333 -1.0400013,3.12 -1.0133347,1.12 -2.7733367,1.12 -0.640001,0 -1.280002,-0.24 -0.640001,-0.24 -1.146668,-0.72 -0.05333,-0.0533 -0.106667,-0.0267 -0.02667,0.0267 -0.02667,0.08 v 5.52001 q 0,0.26667 -0.266667,0.26667 h -2.02667 q -0.266667,0 -0.266667,-0.26667 v -18.13336 q 0,-0.26666 0.266667,-0.26666 h 2.02667 q 0.266667,0 0.266667,0.26666 v 0.42667 q 0,0.0533 0.05333,0.08 0.05333,0 0.106667,-0.0533 0.960001,-0.93334 2.400003,-0.93334 z m 1.280002,4.40001 q 0,-0.96 -0.560001,-1.57334 -0.533334,-0.61333 -1.386669,-0.61333 -0.853334,0 -1.386668,0.61333 -0.506667,0.61334 -0.506667,1.57334 v 5.2 q 0,0.96001 0.506667,1.57334 0.533334,0.61333 1.386668,0.61333 0.853335,0 1.386669,-0.61333 0.560001,-0.61333 0.560001,-1.57334 z m 11.43999778,-3.92001 q 0,-0.26666 0.26666701,-0.26666 H 2.707251 q 0.266667,0 0.266667,0.26666 v 13.04002 q 0,0.26667 -0.266667,0.26667 H 0.68058179 q -0.26666701,0 -0.26666701,-0.26667 v -0.77333 q 0,-0.08 -0.0533334,-0.08 -0.0266667,0 -0.0800001,0.0533 -0.80000101,1.25333 -2.58666998,1.25333 -1.600002,0 -2.5866699,-0.96 -0.9600012,-0.98667 -0.9600012,-2.98667 v -9.54668 q 0,-0.26666 0.266667,-0.26666 h 2.0266692 q 0.266667,0 0.266667,0.26666 v 8.98668 q 0,2.29334 1.8133357,2.29334 0.88000107,0 1.38666838,-0.64 0.5066673,-0.66667 0.5066673,-1.81334 z m 10.21335522,-0.4 q 0.640001,0 1.173335,0.29334 0.16,0.10666 0.106667,0.34666 l -0.373334,2.02667 q -0.02667,0.24 -0.320001,0.16 -0.346667,-0.13333 -0.746667,-0.13333 -0.16,0 -0.4800009,0.0533 -0.8533344,0.08 -1.3866684,0.90667 -0.533334,0.82667 -0.533334,2 v 7.78668 q 0,0.26667 -0.266667,0.26667 H 5.7739305 q -0.266667,0 -0.266667,-0.26667 v -13.04002 q 0,-0.26666 0.266667,-0.26666 h 2.0266692 q 0.266667,0 0.266667,0.26666 v 1.54667 q 0,0.08 0.026667,0.08 0.053333,0 0.08,-0.0533 0.7466676,-1.97334 2.4533365,-1.97334 z m 3.920003,-2 q -0.746668,0 -1.226668,-0.48 -0.480001,-0.48 -0.480001,-1.22667 0,-0.74667 0.480001,-1.22667 0.48,-0.48 1.226668,-0.48 0.773334,0 1.226668,0.48 0.480001,0.45334 0.480001,1.22667 0,0.74667 -0.480001,1.22667 -0.480001,0.48 -1.226668,0.48 z m -1.253335,2.4 q 0,-0.26666 0.266667,-0.26666 h 2.026669 q 0.266667,0 0.266667,0.26666 v 13.04002 q 0,0.26667 -0.266667,0.26667 h -2.026669 q -0.266667,0 -0.266667,-0.26667 z m 10.16001,1.33334 q 0,0.26667 -0.266667,0.26667 h -1.866669 q -0.106667,0 -0.106667,0.10666 v 7.49334 q 0,1.06667 0.373334,1.49334 0.373333,0.4 1.173334,0.37333 h 0.240001 q 0.266667,0 0.266667,0.26667 v 1.70667 q 0,0.26667 -0.266667,0.26667 h -0.826668 q -1.706669,0 -2.58667,-0.66667 -0.853334,-0.66667 -0.853334,-2.53334 v -8.40001 q 0,-0.10666 -0.106667,-0.10666 h -1.040002 q -0.266667,0 -0.266667,-0.26667 v -1.33334 q 0,-0.26666 0.266667,-0.26666 h 1.040002 q 0.106667,0 0.106667,-0.10667 v -3.01334 q 0,-0.26666 0.266667,-0.26666 h 1.946669 q 0.266667,0 0.266667,0.26666 v 3.01334 q 0,0.10667 0.106667,0.10667 h 1.866669 q 0.266667,0 0.266667,0.26666 z m 1.200005,15.44002 q 0,-0.26667 0.266667,-0.26667 0.853335,-0.0267 1.333335,-0.26667 0.506668,-0.24 0.800001,-0.90666 0.320001,-0.66667 0.533334,-1.94667 l -0.02667,-0.13334 -3.386671,-13.22668 -0.02667,-0.08 q 0,-0.21333 0.266667,-0.21333 h 2.160003 q 0.266667,0 0.293333,0.24 l 1.973336,9.62668 q 0.02667,0.08 0.05333,0.08 0.02667,0 0.05333,-0.08 l 1.893336,-9.62668 q 0.05333,-0.24 0.293334,-0.24 l 2.213336,0.0267 q 0.133333,0 0.186667,0.08 0.08,0.08 0.02667,0.21334 l -3.626671,14.18668 q -0.506667,1.84 -1.013335,2.72 -0.506667,0.90667 -1.413335,1.28001 -0.906668,0.37333 -2.560003,0.37333 h -0.02667 q -0.266667,0 -0.266667,-0.26667 z"
         id="path22" />
      <path
         style="fill:#404040"
         d="m -11.89272,525.71887 q -2.000002,0 -3.173337,-0.96 -1.146668,-0.98667 -1.146668,-2.64001 v -0.24 q 0,-0.26666 0.266667,-0.26666 h 1.893335 q 0.266667,0 0.266667,0.26666 v 0.18667 q 0,0.72 0.560001,1.22667 0.560001,0.48 1.386669,0.48 0.800001,0 1.280001,-0.48 0.506668,-0.48 0.506668,-1.22667 0,-0.58667 -0.346668,-0.98667 -0.346667,-0.4 -0.826667,-0.61333 -0.453334,-0.24 -1.413335,-0.64 -1.040002,-0.45334 -1.733336,-0.88 -0.666667,-0.42667 -1.200001,-1.22667 -0.533334,-0.8 -0.533334,-2.02667 0,-1.81334 1.120001,-2.82667 1.146668,-1.01334 3.06667,-1.01334 1.9733363,0 3.0933377,1.04 1.1466681,1.04001 1.1466681,2.82667 v 0.08 q 0,0.26666 -0.266667,0.26666 h -1.8400023 q -0.2666665,0 -0.2666665,-0.26666 v -0.18667 q 0,-0.72 -0.506668,-1.22667 -0.506667,-0.50667 -1.306668,-0.50667 -0.826668,0 -1.306668,0.50667 -0.480001,0.50667 -0.480001,1.22667 0,0.56 0.32,0.93333 0.320001,0.37334 0.746668,0.61334 0.453334,0.21333 1.440002,0.64 1.093335,0.48 1.8133354,0.93333 0.7466676,0.42667 1.2800016,1.22667 0.5600007,0.8 0.5600007,2 0,1.73334 -1.2000015,2.74667 -1.1733348,1.01334 -3.2000042,1.01334 z m 7.4400028,-15.86669 q -0.7466676,0 -1.2266682,-0.48 -0.4800006,-0.48 -0.4800006,-1.22667 0,-0.74667 0.4800006,-1.22667 0.4800006,-0.48 1.2266682,-0.48 0.7733344,0 1.2266683,0.48 0.4800006,0.45334 0.4800006,1.22667 0,0.74667 -0.4800006,1.22667 -0.4800006,0.48 -1.2266683,0.48 z m -1.2533349,2.4 q 0,-0.26666 0.266667,-0.26666 h 2.0266693 q 0.266667,0 0.266667,0.26666 v 13.04002 q 0,0.26667 -0.266667,0.26667 h -2.0266693 q -0.266667,0 -0.266667,-0.26667 z m 10.1600134,1.33334 q 0,0.26667 -0.266667,0.26667 h -1.866669 q -0.1066668,0 -0.1066668,0.10666 v 7.49335 q 0,1.06666 0.3733338,1.49333 0.3733338,0.4 1.1733348,0.37333 h 0.2400003 q 0.266667,0 0.266667,0.26667 v 1.70667 q 0,0.26667 -0.266667,0.26667 H 3.1739597 q -1.7066688,0 -2.58666993,-0.66667 -0.85333441,-0.66667 -0.85333441,-2.53334 v -8.40001 q 0,-0.10666 -0.1066668,-0.10666 H -1.4127128 q -0.266667,0 -0.266667,-0.26667 v -1.33334 q 0,-0.26666 0.266667,-0.26666 h 1.04000136 q 0.1066668,0 0.1066668,-0.10667 v -3.01334 q 0,-0.26666 0.26666700565,-0.26666 H 1.9472915 q 0.266667,0 0.266667,0.26666 v 3.01334 q 0,0.10667 0.1066668,0.10667 h 1.866669 q 0.266667,0 0.266667,0.26666 z m 10.1066797,5.97334 q 0,0.26667 -0.266667,0.26667 H 8.2673 q -0.1066668,0 -0.1066668,0.10666 v 1.44001 q 0,0.96 0.533334,1.57333 0.533334,0.61333 1.3866688,0.61333 0.746667,0 1.253334,-0.45333 0.506668,-0.45333 0.640001,-1.17333 0.08,-0.21334 0.293334,-0.21334 l 1.973336,0.10667 q 0.133333,0 0.186667,0.08 0.08,0.08 0.05333,0.18667 -0.186667,1.73333 -1.333335,2.72 -1.120001,0.96 -3.06667,0.96 -2.080003,0 -3.2800046,-1.14667 -1.2000015,-1.14667 -1.2000015,-3.06667 v -5.54667 q 0,-1.89334 1.2000015,-3.06667 1.2266683,-1.17334 3.2800046,-1.17334 2.080002,0 3.280004,1.17334 1.200001,1.17333 1.200001,3.06667 z m -4.480005,-5.57334 q -0.8533348,0 -1.3866688,0.61333 -0.533334,0.61334 -0.533334,1.57334 v 1.41333 q 0,0.10667 0.1066668,0.10667 h 3.653338 q 0.106667,0 0.106667,-0.10667 v -1.41333 q 0,-0.96 -0.560001,-1.57334 -0.533334,-0.61333 -1.386668,-0.61333 z"
         id="path23" />
    </g>
    <g
       id="text14-9"
       style="font-weight:500;font-stretch:condensed;font-size:26.6667px;line-height:0.9;font-family:'Barlow Condensed';-inkscape-font-specification:'Barlow Condensed, Medium Condensed';text-align:center;white-space:pre;fill:#658bb2;stroke-width:7.55906;stroke-dasharray:7.55906, 7.55906;paint-order:markers stroke fill"
       transform="matrix(0.26458333,0,0,0.26458333,301.07808,7.9913773)"
       aria-label="inter-layer &#10;hopping">
      <path
         d="m 296.93253,274.82676 q -0.74667,0 -1.22667,-0.48 -0.48,-0.48 -0.48,-1.22667 0,-0.74667 0.48,-1.22667 0.48,-0.48 1.22667,-0.48 0.77333,0 1.22667,0.48 0.48,0.45334 0.48,1.22667 0,0.74667 -0.48,1.22667 -0.48001,0.48 -1.22667,0.48 z m -1.25334,2.4 q 0,-0.26666 0.26667,-0.26666 h 2.02667 q 0.26667,0 0.26667,0.26666 v 13.04002 q 0,0.26667 -0.26667,0.26667 h -2.02667 q -0.26667,0 -0.26667,-0.26667 z m 10.24002,-0.45333 q 1.65333,0 2.53333,1.14667 0.90667,1.12 0.90667,3.2 v 9.14668 q 0,0.26667 -0.26667,0.26667 h -2.02667 q -0.26666,0 -0.26666,-0.26667 v -8.93335 q 0,-1.12 -0.48,-1.73333 -0.45334,-0.61334 -1.33334,-0.61334 -0.69333,0 -1.17333,0.42667 -0.48,0.4 -0.64,1.14667 -0.0267,0.0267 -0.0267,0.10667 v 9.60001 q 0,0.26667 -0.26667,0.26667 h -2.02667 q -0.26666,0 -0.26666,-0.26667 v -13.04002 q 0,-0.26666 0.26666,-0.26666 h 2.02667 q 0.26667,0 0.26667,0.26666 v 0.58667 q 0,0.08 0.0533,0.10667 0.0533,0 0.10667,-0.08 0.93333,-1.06667 2.61334,-1.06667 z m 11.06666,1.78667 q 0,0.26666 -0.26667,0.26666 h -1.86667 q -0.10667,0 -0.10667,0.10667 v 7.49334 q 0,1.06667 0.37334,1.49334 0.37333,0.4 1.17333,0.37333 h 0.24 q 0.26667,0 0.26667,0.26667 v 1.70667 q 0,0.26667 -0.26667,0.26667 h -0.82667 q -1.70667,0 -2.58667,-0.66667 -0.85333,-0.66667 -0.85333,-2.53334 v -8.40001 q 0,-0.10667 -0.10667,-0.10667 h -1.04 q -0.26667,0 -0.26667,-0.26666 v -1.33334 q 0,-0.26666 0.26667,-0.26666 h 1.04 q 0.10667,0 0.10667,-0.10667 v -3.01334 q 0,-0.26667 0.26667,-0.26667 h 1.94667 q 0.26666,0 0.26666,0.26667 v 3.01334 q 0,0.10667 0.10667,0.10667 h 1.86667 q 0.26667,0 0.26667,0.26666 z m 10.10668,5.97334 q 0,0.26667 -0.26667,0.26667 h -6.02668 q -0.10666,0 -0.10666,0.10666 v 1.44 q 0,0.96001 0.53333,1.57334 0.53334,0.61333 1.38667,0.61333 0.74667,0 1.25333,-0.45333 0.50667,-0.45333 0.64001,-1.17334 0.08,-0.21333 0.29333,-0.21333 l 1.97333,0.10667 q 0.13334,0 0.18667,0.08 0.08,0.08 0.0533,0.18667 -0.18667,1.73333 -1.33334,2.72 -1.12,0.96 -3.06667,0.96 -2.08,0 -3.28,-1.14667 -1.20001,-1.14667 -1.20001,-3.06667 v -5.54667 q 0,-1.89334 1.20001,-3.06667 1.22666,-1.17334 3.28,-1.17334 2.08,0 3.28,1.17334 1.20001,1.17333 1.20001,3.06667 z m -4.48001,-5.57334 q -0.85333,0 -1.38667,0.61333 -0.53333,0.61334 -0.53333,1.57334 v 1.41333 q 0,0.10667 0.10666,0.10667 h 3.65334 q 0.10667,0 0.10667,-0.10667 v -1.41333 q 0,-0.96 -0.56,-1.57334 -0.53334,-0.61333 -1.38667,-0.61333 z m 11.59999,-2.13334 q 0.64,0 1.17333,0.29334 0.16,0.10666 0.10667,0.34666 l -0.37333,2.02667 q -0.0267,0.24 -0.32,0.16 -0.34667,-0.13333 -0.74667,-0.13333 -0.16,0 -0.48,0.0533 -0.85334,0.08 -1.38667,0.90667 -0.53333,0.82667 -0.53333,2 v 7.78668 q 0,0.26667 -0.26667,0.26667 h -2.02667 q -0.26667,0 -0.26667,-0.26667 v -13.04002 q 0,-0.26666 0.26667,-0.26666 h 2.02667 q 0.26667,0 0.26667,0.26666 v 1.54667 q 0,0.08 0.0267,0.08 0.0533,0 0.08,-0.0533 0.74667,-1.97334 2.45334,-1.97334 z m 2.4,4.72001 q 0,-0.26667 0.26667,-0.26667 h 6.45334 q 0.26667,0 0.26667,0.26667 v 1.68 q 0,0.26667 -0.26667,0.26667 h -6.45334 q -0.26667,0 -0.26667,-0.26667 z m 9.06667,-9.41335 q 0,-0.26666 0.26667,-0.26666 h 2.02667 q 0.26667,0 0.26667,0.26666 v 18.13336 q 0,0.26667 -0.26667,0.26667 h -2.02667 q -0.26667,0 -0.26667,-0.26667 z m 9.22668,4.61334 q 1.94667,0 3.17334,1.22667 1.25333,1.22667 1.25333,3.22667 v 9.06668 q 0,0.26667 -0.26666,0.26667 h -2.02667 q -0.26667,0 -0.26667,-0.26667 v -0.58667 q 0,-0.0533 -0.0533,-0.08 -0.0267,-0.0267 -0.08,0.0267 -0.96,1.12 -2.77334,1.12 -1.52,0 -2.66667,-0.85333 -1.14667,-0.88001 -1.14667,-3.09334 0,-2.32 1.38667,-3.38667 1.41334,-1.09334 3.68001,-1.09334 h 1.54666 q 0.10667,0 0.10667,-0.10666 v -0.77334 q 0,-1.09333 -0.56,-1.78667 -0.53333,-0.69333 -1.36,-0.69333 -0.66667,0 -1.12,0.45333 -0.45334,0.45334 -0.53334,1.17334 0,0.26666 -0.26666,0.26666 h -2.18667 q -0.26667,0 -0.26667,-0.26666 0.13333,-1.70667 1.36,-2.77334 1.25334,-1.06667 3.06667,-1.06667 z m -0.45333,11.76002 q 0.93333,0 1.62667,-0.58667 0.69333,-0.58667 0.69333,-1.65334 v -1.81333 q 0,-0.10667 -0.10667,-0.10667 h -1.62666 q -1.06667,0 -1.70667,0.58667 -0.64,0.56 -0.64,1.65333 0,0.98667 0.48,1.46667 0.48,0.45334 1.28,0.45334 z m 6.93334,5.49334 q 0,-0.26667 0.26667,-0.26667 0.85334,-0.0267 1.33334,-0.26667 0.50666,-0.24 0.8,-0.90666 0.32,-0.66667 0.53333,-1.94667 l -0.0267,-0.13334 -3.38668,-13.22668 -0.0267,-0.08 q 0,-0.21333 0.26666,-0.21333 h 2.16001 q 0.26666,0 0.29333,0.24 l 1.97334,9.62667 q 0.0267,0.08 0.0533,0.08 0.0267,0 0.0533,-0.08 l 1.89334,-9.62667 q 0.0533,-0.24 0.29333,-0.24 l 2.21334,0.0267 q 0.13333,0 0.18667,0.08 0.08,0.08 0.0267,0.21334 l -3.62667,14.18668 q -0.50667,1.84 -1.01333,2.72 -0.50667,0.90667 -1.41334,1.28001 -0.90667,0.37333 -2.56,0.37333 h -0.0267 q -0.26667,0 -0.26667,-0.26667 z m 19.25338,-9.46668 q 0,0.26667 -0.26667,0.26667 h -6.02667 q -0.10667,0 -0.10667,0.10666 v 1.44 q 0,0.96001 0.53333,1.57334 0.53334,0.61333 1.38667,0.61333 0.74667,0 1.25334,-0.45333 0.50666,-0.45333 0.64,-1.17334 0.08,-0.21333 0.29333,-0.21333 l 1.97334,0.10667 q 0.13333,0 0.18666,0.08 0.08,0.08 0.0533,0.18667 -0.18667,1.73333 -1.33334,2.72 -1.12,0.96 -3.06667,0.96 -2.08,0 -3.28,-1.14667 -1.2,-1.14667 -1.2,-3.06667 v -5.54667 q 0,-1.89334 1.2,-3.06667 1.22667,-1.17334 3.28,-1.17334 2.08,0 3.28001,1.17334 1.2,1.17333 1.2,3.06667 z m -4.48001,-5.57334 q -0.85333,0 -1.38667,0.61333 -0.53333,0.61334 -0.53333,1.57334 v 1.41333 q 0,0.10667 0.10667,0.10667 h 3.65333 q 0.10667,0 0.10667,-0.10667 v -1.41333 q 0,-0.96 -0.56,-1.57334 -0.53333,-0.61333 -1.38667,-0.61333 z m 11.59999,-2.13334 q 0.64,0 1.17334,0.29334 0.16,0.10666 0.10666,0.34666 l -0.37333,2.02667 q -0.0267,0.24 -0.32,0.16 -0.34667,-0.13333 -0.74667,-0.13333 -0.16,0 -0.48,0.0533 -0.85333,0.08 -1.38667,0.90667 -0.53333,0.82667 -0.53333,2 v 7.78668 q 0,0.26667 -0.26667,0.26667 h -2.02667 q -0.26667,0 -0.26667,-0.26667 v -13.04002 q 0,-0.26666 0.26667,-0.26666 h 2.02667 q 0.26667,0 0.26667,0.26666 v 1.54667 q 0,0.08 0.0267,0.08 0.0533,0 0.08,-0.0533 0.74667,-1.97334 2.45334,-1.97334 z"
         id="path20" />
      <path
         d="m 314.93256,300.77346 q 1.65333,0 2.53333,1.14667 0.90667,1.12 0.90667,3.2 v 9.14668 q 0,0.26667 -0.26666,0.26667 h -2.02667 q -0.26667,0 -0.26667,-0.26667 v -8.93334 q 0,-1.12001 -0.48,-1.73334 -0.45334,-0.61333 -1.33334,-0.61333 -0.69333,0 -1.17333,0.42666 -0.48,0.4 -0.64,1.14667 -0.0267,0.0267 -0.0267,0.10667 v 9.60001 q 0,0.26667 -0.26667,0.26667 h -2.02667 q -0.26666,0 -0.26666,-0.26667 v -18.13336 q 0,-0.26666 0.26666,-0.26666 h 2.02667 q 0.26667,0 0.26667,0.26666 v 5.68001 q 0,0.08 0.0533,0.10667 0.0533,0 0.10667,-0.08 0.93334,-1.06667 2.61334,-1.06667 z m 10.05332,13.97335 q -2.08,0 -3.30667,-1.14667 -1.2,-1.17333 -1.2,-3.09334 v -5.52 q 0,-1.89334 1.22667,-3.06667 1.22667,-1.17334 3.28,-1.17334 2.08001,0 3.28001,1.17334 1.22667,1.17333 1.22667,3.06667 v 5.52 q 0,1.94667 -1.22667,3.09334 -1.2,1.14667 -3.28001,1.14667 z m 0,-2.24 q 0.85334,0 1.38667,-0.58667 0.56,-0.61333 0.56,-1.6 v -5.17334 q 0,-0.96 -0.56,-1.57334 -0.53333,-0.61333 -1.38667,-0.61333 -0.88,0 -1.41333,0.61333 -0.53334,0.61334 -0.53334,1.57334 v 5.17334 q 0,0.98667 0.53334,1.6 0.53333,0.58667 1.41333,0.58667 z m 11.84002,-11.76002 q 1.76,0 2.77334,1.17334 1.04,1.14667 1.04,3.04 v 5.54667 q 0,1.97334 -1.04,3.12001 -1.01334,1.12 -2.77334,1.12 -0.64,0 -1.28,-0.24 -0.64,-0.24 -1.14667,-0.72 -0.0533,-0.0533 -0.10666,-0.0267 -0.0267,0.0267 -0.0267,0.08 v 5.52001 q 0,0.26667 -0.26667,0.26667 h -2.02667 q -0.26666,0 -0.26666,-0.26667 v -18.13336 q 0,-0.26666 0.26666,-0.26666 h 2.02667 q 0.26667,0 0.26667,0.26666 v 0.42667 q 0,0.0533 0.0533,0.08 0.0533,0 0.10667,-0.0533 0.96,-0.93334 2.4,-0.93334 z m 1.28,4.40001 q 0,-0.96 -0.56,-1.57334 -0.53333,-0.61333 -1.38666,-0.61333 -0.85334,0 -1.38667,0.61333 -0.50667,0.61334 -0.50667,1.57334 v 5.2 q 0,0.96001 0.50667,1.57334 0.53333,0.61333 1.38667,0.61333 0.85333,0 1.38666,-0.61333 0.56,-0.61333 0.56,-1.57334 z m 10.32,-4.40001 q 1.76001,0 2.77334,1.17334 1.04,1.14667 1.04,3.04 v 5.54667 q 0,1.97334 -1.04,3.12001 -1.01333,1.12 -2.77334,1.12 -0.64,0 -1.28,-0.24 -0.64,-0.24 -1.14667,-0.72 -0.0533,-0.0533 -0.10666,-0.0267 -0.0267,0.0267 -0.0267,0.08 v 5.52001 q 0,0.26667 -0.26667,0.26667 h -2.02667 q -0.26666,0 -0.26666,-0.26667 v -18.13336 q 0,-0.26666 0.26666,-0.26666 h 2.02667 q 0.26667,0 0.26667,0.26666 v 0.42667 q 0,0.0533 0.0533,0.08 0.0533,0 0.10667,-0.0533 0.96,-0.93334 2.4,-0.93334 z m 1.28,4.40001 q 0,-0.96 -0.56,-1.57334 -0.53333,-0.61333 -1.38666,-0.61333 -0.85334,0 -1.38667,0.61333 -0.50667,0.61334 -0.50667,1.57334 v 5.2 q 0,0.96001 0.50667,1.57334 0.53333,0.61333 1.38667,0.61333 0.85333,0 1.38666,-0.61333 0.56,-0.61333 0.56,-1.57334 z m 6.32,-6.32001 q -0.74667,0 -1.22667,-0.48 -0.48,-0.48 -0.48,-1.22667 0,-0.74667 0.48,-1.22667 0.48,-0.48 1.22667,-0.48 0.77333,0 1.22667,0.48 0.48,0.45334 0.48,1.22667 0,0.74667 -0.48,1.22667 -0.48,0.48 -1.22667,0.48 z m -1.25333,2.4 q 0,-0.26666 0.26666,-0.26666 h 2.02667 q 0.26667,0 0.26667,0.26666 v 13.04002 q 0,0.26667 -0.26667,0.26667 h -2.02667 q -0.26666,0 -0.26666,-0.26667 z m 10.24001,-0.45333 q 1.65333,0 2.53333,1.14667 0.90667,1.12 0.90667,3.2 v 9.14668 q 0,0.26667 -0.26667,0.26667 h -2.02667 q -0.26666,0 -0.26666,-0.26667 v -8.93334 q 0,-1.12001 -0.48,-1.73334 -0.45334,-0.61333 -1.33334,-0.61333 -0.69333,0 -1.17333,0.42666 -0.48,0.4 -0.64001,1.14667 -0.0267,0.0267 -0.0267,0.10667 v 9.60001 q 0,0.26667 -0.26667,0.26667 h -2.02667 q -0.26666,0 -0.26666,-0.26667 v -13.04002 q 0,-0.26666 0.26666,-0.26666 h 2.02667 q 0.26667,0 0.26667,0.26666 v 0.58667 q 0,0.08 0.0533,0.10667 0.0533,0 0.10667,-0.08 0.93333,-1.06667 2.61334,-1.06667 z m 11.91999,0.45333 q 0,-0.26666 0.26667,-0.26666 h 2.02667 q 0.26667,0 0.26667,0.26666 v 12.90669 q 0,2.96 -1.44001,4.48 -1.41333,1.54667 -4.96,1.36 -0.26667,-0.0267 -0.26667,-0.29333 v -1.70667 q 0,-0.26667 0.29333,-0.26667 2.18667,0.08 2.98668,-0.88 0.82666,-0.93333 0.82666,-2.93333 v -0.56 q 0,-0.0533 -0.0533,-0.0533 -0.0267,-0.0267 -0.08,0.0267 -0.90667,1.22667 -2.58667,1.22667 -1.76,0 -2.72,-1.12 -0.93334,-1.14667 -0.93334,-3.09334 v -5.33334 q 0,-1.97334 0.96,-3.09334 0.96,-1.14667 2.69334,-1.14667 1.68,0 2.58667,1.25334 0.0533,0.0533 0.08,0.0533 0.0533,-0.0267 0.0533,-0.08 z m -1.89333,11.09335 q 0.85333,0 1.36,-0.58667 0.53333,-0.61333 0.53333,-1.57333 v -5.01334 q 0,-0.96 -0.53333,-1.57334 -0.53333,-0.61333 -1.36,-0.61333 -0.85334,0 -1.38667,0.61333 -0.53334,0.61334 -0.53334,1.57334 v 5.01334 q 0,0.96 0.53334,1.57333 0.53333,0.58667 1.38667,0.58667 z"
         id="path21" />
    </g>
    <path
       d="m 260.79916,274.82676 q -0.74667,0 -1.22667,-0.48 -0.48,-0.48 -0.48,-1.22667 0,-0.74667 0.48,-1.22667 0.48,-0.48 1.22667,-0.48 0.77333,0 1.22667,0.48 0.48,0.45334 0.48,1.22667 0,0.74667 -0.48,1.22667 -0.48,0.48 -1.22667,0.48 z m -1.25333,2.4 q 0,-0.26666 0.26666,-0.26666 h 2.02667 q 0.26667,0 0.26667,0.26666 v 13.04002 q 0,0.26667 -0.26667,0.26667 h -2.02667 q -0.26666,0 -0.26666,-0.26667 z m 10.24001,-0.45333 q 1.65333,0 2.53334,1.14667 0.90666,1.12 0.90666,3.2 v 9.14668 q 0,0.26667 -0.26666,0.26667 h -2.02667 q -0.26667,0 -0.26667,-0.26667 v -8.93335 q 0,-1.12 -0.48,-1.73333 -0.45333,-0.61334 -1.33334,-0.61334 -0.69333,0 -1.17333,0.42667 -0.48,0.4 -0.64,1.14667 -0.0267,0.0267 -0.0267,0.10667 v 9.60001 q 0,0.26667 -0.26667,0.26667 h -2.02666 q -0.26667,0 -0.26667,-0.26667 v -13.04002 q 0,-0.26666 0.26667,-0.26666 h 2.02666 q 0.26667,0 0.26667,0.26666 v 0.58667 q 0,0.08 0.0533,0.10667 0.0533,0 0.10666,-0.08 0.93334,-1.06667 2.61334,-1.06667 z m 11.06666,1.78667 q 0,0.26666 -0.26667,0.26666 h -1.86667 q -0.10666,0 -0.10666,0.10667 v 7.49334 q 0,1.06667 0.37333,1.49334 0.37333,0.4 1.17333,0.37333 h 0.24 q 0.26667,0 0.26667,0.26667 v 1.70667 q 0,0.26667 -0.26667,0.26667 h -0.82666 q -1.70667,0 -2.58667,-0.66667 -0.85334,-0.66667 -0.85334,-2.53334 v -8.40001 q 0,-0.10667 -0.10666,-0.10667 h -1.04001 q -0.26666,0 -0.26666,-0.26666 v -1.33334 q 0,-0.26666 0.26666,-0.26666 h 1.04001 q 0.10666,0 0.10666,-0.10667 v -3.01334 q 0,-0.26667 0.26667,-0.26667 h 1.94667 q 0.26667,0 0.26667,0.26667 v 3.01334 q 0,0.10667 0.10666,0.10667 h 1.86667 q 0.26667,0 0.26667,0.26666 z m 6.53334,-1.73334 q 0.64,0 1.17334,0.29334 0.16,0.10666 0.10666,0.34666 l -0.37333,2.02667 q -0.0267,0.24 -0.32,0.16 -0.34667,-0.13333 -0.74667,-0.13333 -0.16,0 -0.48,0.0533 -0.85333,0.08 -1.38667,0.90667 -0.53333,0.82667 -0.53333,2 v 7.78668 q 0,0.26667 -0.26667,0.26667 h -2.02667 q -0.26667,0 -0.26667,-0.26667 v -13.04002 q 0,-0.26666 0.26667,-0.26666 h 2.02667 q 0.26667,0 0.26667,0.26666 v 1.54667 q 0,0.08 0.0267,0.08 0.0533,0 0.08,-0.0533 0.74667,-1.97334 2.45334,-1.97334 z m 6.69335,-0.08 q 1.94667,0 3.17333,1.22667 1.25334,1.22667 1.25334,3.22667 v 9.06668 q 0,0.26667 -0.26667,0.26667 h -2.02667 q -0.26666,0 -0.26666,-0.26667 v -0.58667 q 0,-0.0533 -0.0533,-0.08 -0.0267,-0.0267 -0.08,0.0267 -0.96,1.12 -2.77333,1.12 -1.52001,0 -2.66667,-0.85333 -1.14667,-0.88001 -1.14667,-3.09334 0,-2.32 1.38667,-3.38667 1.41333,-1.09334 3.68,-1.09334 h 1.54667 q 0.10667,0 0.10667,-0.10666 v -0.77334 q 0,-1.09333 -0.56,-1.78667 -0.53334,-0.69333 -1.36001,-0.69333 -0.66666,0 -1.12,0.45333 -0.45333,0.45334 -0.53333,1.17334 0,0.26666 -0.26667,0.26666 h -2.18667 q -0.26667,0 -0.26667,-0.26666 0.13334,-1.70667 1.36001,-2.77334 1.25333,-1.06667 3.06667,-1.06667 z m -0.45334,11.76002 q 0.93334,0 1.62667,-0.58667 0.69334,-0.58667 0.69334,-1.65334 v -1.81333 q 0,-0.10667 -0.10667,-0.10667 h -1.62667 q -1.06667,0 -1.70667,0.58667 -0.64,0.56 -0.64,1.65333 0,0.98667 0.48,1.46667 0.48,0.45334 1.28,0.45334 z m 6.88002,-6.96001 q 0,-0.26667 0.26666,-0.26667 h 6.45334 q 0.26667,0 0.26667,0.26667 v 1.68 q 0,0.26667 -0.26667,0.26667 h -6.45334 q -0.26666,0 -0.26666,-0.26667 z m 9.06667,-9.41335 q 0,-0.26666 0.26667,-0.26666 h 2.02667 q 0.26666,0 0.26666,0.26666 v 18.13336 q 0,0.26667 -0.26666,0.26667 h -2.02667 q -0.26667,0 -0.26667,-0.26667 z m 9.22668,4.61334 q 1.94667,0 3.17334,1.22667 1.25333,1.22667 1.25333,3.22667 v 9.06668 q 0,0.26667 -0.26667,0.26667 h -2.02667 q -0.26666,0 -0.26666,-0.26667 v -0.58667 q 0,-0.0533 -0.0533,-0.08 -0.0267,-0.0267 -0.08,0.0267 -0.96,1.12 -2.77333,1.12 -1.52,0 -2.66667,-0.85333 -1.14667,-0.88001 -1.14667,-3.09334 0,-2.32 1.38667,-3.38667 1.41333,-1.09334 3.68,-1.09334 h 1.54667 q 0.10667,0 0.10667,-0.10666 v -0.77334 q 0,-1.09333 -0.56,-1.78667 -0.53334,-0.69333 -1.36,-0.69333 -0.66667,0 -1.12001,0.45333 -0.45333,0.45334 -0.53333,1.17334 0,0.26666 -0.26667,0.26666 h -2.18667 q -0.26666,0 -0.26666,-0.26666 0.13333,-1.70667 1.36,-2.77334 1.25333,-1.06667 3.06667,-1.06667 z m -0.45334,11.76002 q 0.93334,0 1.62667,-0.58667 0.69334,-0.58667 0.69334,-1.65334 v -1.81333 q 0,-0.10667 -0.10667,-0.10667 h -1.62667 q -1.06667,0 -1.70667,0.58667 -0.64,0.56 -0.64,1.65333 0,0.98667 0.48,1.46667 0.48,0.45334 1.28,0.45334 z m 6.93335,5.49334 q 0,-0.26667 0.26667,-0.26667 0.85333,-0.0267 1.33333,-0.26667 0.50667,-0.24 0.8,-0.90666 0.32,-0.66667 0.53334,-1.94667 l -0.0267,-0.13334 -3.38667,-13.22668 -0.0267,-0.08 q 0,-0.21333 0.26667,-0.21333 h 2.16 q 0.26667,0 0.29334,0.24 l 1.97333,9.62667 q 0.0267,0.08 0.0533,0.08 0.0267,0 0.0533,-0.08 l 1.89334,-9.62667 q 0.0533,-0.24 0.29333,-0.24 l 2.21334,0.0267 q 0.13333,0 0.18666,0.08 0.08,0.08 0.0267,0.21334 l -3.62667,14.18668 q -0.50667,1.84 -1.01334,2.72 -0.50666,0.90667 -1.41333,1.28001 -0.90667,0.37333 -2.56001,0.37333 h -0.0267 q -0.26667,0 -0.26667,-0.26667 z m 19.25337,-9.46668 q 0,0.26667 -0.26666,0.26667 h -6.02668 q -0.10666,0 -0.10666,0.10666 v 1.44 q 0,0.96001 0.53333,1.57334 0.53333,0.61333 1.38667,0.61333 0.74667,0 1.25333,-0.45333 0.50667,-0.45333 0.64,-1.17334 0.08,-0.21333 0.29334,-0.21333 l 1.97333,0.10667 q 0.13334,0 0.18667,0.08 0.08,0.08 0.0533,0.18667 -0.18666,1.73333 -1.33333,2.72 -1.12,0.96 -3.06667,0.96 -2.08,0 -3.28001,-1.14667 -1.2,-1.14667 -1.2,-3.06667 v -5.54667 q 0,-1.89334 1.2,-3.06667 1.22667,-1.17334 3.28001,-1.17334 2.08,0 3.28,1.17334 1.2,1.17333 1.2,3.06667 z m -4.48,-5.57334 q -0.85334,0 -1.38667,0.61333 -0.53333,0.61334 -0.53333,1.57334 v 1.41333 q 0,0.10667 0.10666,0.10667 h 3.65334 q 0.10667,0 0.10667,-0.10667 v -1.41333 q 0,-0.96 -0.56,-1.57334 -0.53334,-0.61333 -1.38667,-0.61333 z m 11.59999,-2.13334 q 0.64,0 1.17333,0.29334 0.16,0.10666 0.10667,0.34666 l -0.37334,2.02667 q -0.0267,0.24 -0.32,0.16 -0.34666,-0.13333 -0.74666,-0.13333 -0.16,0 -0.48,0.0533 -0.85334,0.08 -1.38667,0.90667 -0.53334,0.82667 -0.53334,2 v 7.78668 q 0,0.26667 -0.26666,0.26667 h -2.02667 q -0.26667,0 -0.26667,-0.26667 v -13.04002 q 0,-0.26666 0.26667,-0.26666 h 2.02667 q 0.26666,0 0.26666,0.26666 v 1.54667 q 0,0.08 0.0267,0.08 0.0533,0 0.08,-0.0533 0.74667,-1.97334 2.45334,-1.97334 z m 13.33336,-0.0533 q 1.65334,0 2.53334,1.14667 0.90667,1.12 0.90667,3.2 v 9.14668 q 0,0.26667 -0.26667,0.26667 h -2.02667 q -0.26666,0 -0.26666,-0.26667 v -8.93335 q 0,-1.12 -0.48001,-1.73333 -0.45333,-0.61334 -1.33333,-0.61334 -0.69333,0 -1.17334,0.42667 -0.48,0.4 -0.64,1.14667 -0.0267,0.0267 -0.0267,0.10667 v 9.60001 q 0,0.26667 -0.26667,0.26667 h -2.02667 q -0.26667,0 -0.26667,-0.26667 v -18.13336 q 0,-0.26666 0.26667,-0.26666 h 2.02667 q 0.26667,0 0.26667,0.26666 v 5.68001 q 0,0.08 0.0533,0.10667 0.0533,0 0.10667,-0.08 0.93333,-1.06667 2.61333,-1.06667 z m 10.05333,13.97335 q -2.08,0 -3.30667,-1.14667 -1.2,-1.17333 -1.2,-3.09334 v -5.52 q 0,-1.89334 1.22666,-3.06667 1.22667,-1.17334 3.28001,-1.17334 2.08,0 3.28,1.17334 1.22667,1.17333 1.22667,3.06667 v 5.52 q 0,1.94667 -1.22667,3.09334 -1.2,1.14667 -3.28,1.14667 z m 0,-2.24 q 0.85333,0 1.38667,-0.58667 0.56,-0.61333 0.56,-1.6 v -5.17334 q 0,-0.96 -0.56,-1.57334 -0.53334,-0.61333 -1.38667,-0.61333 -0.88,0 -1.41334,0.61333 -0.53333,0.61334 -0.53333,1.57334 v 5.17334 q 0,0.98667 0.53333,1.6 0.53334,0.58667 1.41334,0.58667 z m 11.84002,-11.76002 q 1.76,0 2.77333,1.17334 1.04,1.14667 1.04,3.04 v 5.54667 q 0,1.97334 -1.04,3.12001 -1.01333,1.12 -2.77333,1.12 -0.64,0 -1.28,-0.24 -0.64001,-0.24 -1.14667,-0.72 -0.0533,-0.0533 -0.10667,-0.0267 -0.0267,0.0267 -0.0267,0.08 v 5.52001 q 0,0.26667 -0.26666,0.26667 h -2.02667 q -0.26667,0 -0.26667,-0.26667 v -18.13336 q 0,-0.26666 0.26667,-0.26666 h 2.02667 q 0.26666,0 0.26666,0.26666 v 0.42667 q 0,0.0533 0.0533,0.08 0.0533,0 0.10666,-0.0533 0.96,-0.93334 2.40001,-0.93334 z m 1.28,4.40001 q 0,-0.96 -0.56,-1.57334 -0.53334,-0.61333 -1.38667,-0.61333 -0.85334,0 -1.38667,0.61333 -0.50667,0.61334 -0.50667,1.57334 v 5.2 q 0,0.96001 0.50667,1.57334 0.53333,0.61333 1.38667,0.61333 0.85333,0 1.38667,-0.61333 0.56,-0.61333 0.56,-1.57334 z m 10.32,-4.40001 q 1.76,0 2.77333,1.17334 1.04,1.14667 1.04,3.04 v 5.54667 q 0,1.97334 -1.04,3.12001 -1.01333,1.12 -2.77333,1.12 -0.64001,0 -1.28001,-0.24 -0.64,-0.24 -1.14666,-0.72 -0.0533,-0.0533 -0.10667,-0.0267 -0.0267,0.0267 -0.0267,0.08 v 5.52001 q 0,0.26667 -0.26667,0.26667 h -2.02666 q -0.26667,0 -0.26667,-0.26667 v -18.13336 q 0,-0.26666 0.26667,-0.26666 h 2.02666 q 0.26667,0 0.26667,0.26666 v 0.42667 q 0,0.0533 0.0533,0.08 0.0533,0 0.10666,-0.0533 0.96,-0.93334 2.40001,-0.93334 z m 1.28,4.40001 q 0,-0.96 -0.56,-1.57334 -0.53334,-0.61333 -1.38667,-0.61333 -0.85334,0 -1.38667,0.61333 -0.50667,0.61334 -0.50667,1.57334 v 5.2 q 0,0.96001 0.50667,1.57334 0.53333,0.61333 1.38667,0.61333 0.85333,0 1.38667,-0.61333 0.56,-0.61333 0.56,-1.57334 z m 6.32,-6.32001 q -0.74667,0 -1.22667,-0.48 -0.48,-0.48 -0.48,-1.22667 0,-0.74667 0.48,-1.22667 0.48,-0.48 1.22667,-0.48 0.77333,0 1.22666,0.48 0.48001,0.45334 0.48001,1.22667 0,0.74667 -0.48001,1.22667 -0.48,0.48 -1.22666,0.48 z m -1.25334,2.4 q 0,-0.26666 0.26667,-0.26666 h 2.02667 q 0.26666,0 0.26666,0.26666 v 13.04002 q 0,0.26667 -0.26666,0.26667 h -2.02667 q -0.26667,0 -0.26667,-0.26667 z m 10.24,-0.45333 q 1.65334,0 2.53334,1.14667 0.90667,1.12 0.90667,3.2 v 9.14668 q 0,0.26667 -0.26667,0.26667 h -2.02667 q -0.26667,0 -0.26667,-0.26667 v -8.93335 q 0,-1.12 -0.48,-1.73333 -0.45333,-0.61334 -1.33333,-0.61334 -0.69334,0 -1.17334,0.42667 -0.48,0.4 -0.64,1.14667 -0.0267,0.0267 -0.0267,0.10667 v 9.60001 q 0,0.26667 -0.26667,0.26667 h -2.02667 q -0.26667,0 -0.26667,-0.26667 v -13.04002 q 0,-0.26666 0.26667,-0.26666 h 2.02667 q 0.26667,0 0.26667,0.26666 v 0.58667 q 0,0.08 0.0533,0.10667 0.0533,0 0.10667,-0.08 0.93333,-1.06667 2.61333,-1.06667 z m 11.92001,0.45333 q 0,-0.26666 0.26666,-0.26666 h 2.02667 q 0.26667,0 0.26667,0.26666 v 12.90669 q 0,2.96 -1.44,4.48 -1.41334,1.54667 -4.96001,1.36 -0.26667,-0.0267 -0.26667,-0.29333 v -1.70667 q 0,-0.26667 0.29334,-0.26667 2.18667,0.08 2.98667,-0.88 0.82667,-0.93333 0.82667,-2.93333 v -0.56001 q 0,-0.0533 -0.0533,-0.0533 -0.0267,-0.0267 -0.08,0.0267 -0.90667,1.22667 -2.58667,1.22667 -1.76,0 -2.72,-1.12001 -0.93334,-1.14666 -0.93334,-3.09333 v -5.33334 q 0,-1.97334 0.96,-3.09334 0.96001,-1.14667 2.69334,-1.14667 1.68,0 2.58667,1.25334 0.0533,0.0533 0.08,0.0533 0.0533,-0.0267 0.0533,-0.08 z m -1.89334,11.09335 q 0.85333,0 1.36,-0.58667 0.53334,-0.61333 0.53334,-1.57333 v -5.01334 q 0,-0.96 -0.53334,-1.57334 -0.53333,-0.61333 -1.36,-0.61333 -0.85333,0 -1.38667,0.61333 -0.53333,0.61334 -0.53333,1.57334 v 5.01334 q 0,0.96 0.53333,1.57333 0.53334,0.58667 1.38667,0.58667 z"
       id="text14-7-6"
       style="font-weight:500;font-stretch:condensed;font-size:26.6667px;line-height:0.9;font-family:'Barlow Condensed';-inkscape-font-specification:'Barlow Condensed, Medium Condensed';text-align:center;white-space:pre;fill:#c08060;stroke-width:7.55906;stroke-dasharray:7.55906, 7.55906;paint-order:markers stroke fill"
       transform="matrix(0.26458333,0,0,0.26458333,291.09678,40.666247)"
       aria-label="intra-layer hopping" />
    <g
       id="text15-2"
       style="font-weight:500;font-stretch:condensed;font-size:26.6667px;line-height:0.9;font-family:'Barlow Condensed';-inkscape-font-specification:'Barlow Condensed, Medium Condensed';text-align:center;white-space:pre;fill:#408080;stroke-width:7.55906;paint-order:markers stroke fill"
       transform="matrix(0.26458333,0,0,0.26458333,262.40334,105.19156)"
       aria-label="impurity-bath hybridisation">
      <path
         d="m 92.749875,-161.26504 q -0.746668,0 -1.226669,-0.48 -0.48,-0.48 -0.48,-1.22667 0,-0.74666 0.48,-1.22666 0.480001,-0.48 1.226669,-0.48 0.773334,0 1.226668,0.48 0.48,0.45333 0.48,1.22666 0,0.74667 -0.48,1.22667 -0.480001,0.48 -1.226668,0.48 z m -1.253335,2.40001 q 0,-0.26667 0.266667,-0.26667 h 2.026669 q 0.266667,0 0.266667,0.26667 v 13.04001 q 0,0.26667 -0.266667,0.26667 h -2.026669 q -0.266667,0 -0.266667,-0.26667 z m 16.29335,-0.45334 q 1.68001,0 2.56001,1.2 0.90667,1.17334 0.90667,3.30667 v 8.98668 q 0,0.26667 -0.26667,0.26667 h -2 q -0.26667,0 -0.26667,-0.26667 v -8.80001 q 0,-1.17333 -0.48,-1.81333 -0.48,-0.66667 -1.28,-0.66667 -0.85334,0 -1.36001,0.66667 -0.50666,0.64 -0.50666,1.78666 v 8.82668 q 0,0.26667 -0.26667,0.26667 h -2 q -0.26667,0 -0.26667,-0.26667 v -8.80001 q 0,-1.17333 -0.48,-1.81333 -0.48,-0.66667 -1.28,-0.66667 -0.853336,0 -1.360003,0.66667 -0.506667,0.64 -0.506667,1.78666 v 8.82668 q 0,0.26667 -0.266667,0.26667 H 96.66988 q -0.266667,0 -0.266667,-0.26667 v -13.04001 q 0,-0.26667 0.266667,-0.26667 h 2.000003 q 0.266667,0 0.266667,0.26667 v 0.66666 q 0,0.0533 0.02667,0.08 0.05333,0 0.106667,-0.0533 0.533334,-0.58667 1.226667,-0.85333 0.69334,-0.29334 1.36,-0.29334 2.02667,0 2.90667,1.76 0.0267,0.0533 0.08,0.0533 0.0533,-0.0267 0.08,-0.13334 0.56,-0.88 1.38667,-1.28 0.82667,-0.4 1.68,-0.4 z m 11.01334,-0.0267 q 1.76,0 2.77334,1.17333 1.04,1.14667 1.04,3.04 v 5.54668 q 0,1.97333 -1.04,3.12 -1.01334,1.12 -2.77334,1.12 -0.64,0 -1.28,-0.24 -0.64,-0.24 -1.14667,-0.72 -0.0533,-0.0533 -0.10666,-0.0267 -0.0267,0.0267 -0.0267,0.08 v 5.52 q 0,0.26667 -0.26667,0.26667 h -2.02667 q -0.26666,0 -0.26666,-0.26667 v -18.13335 q 0,-0.26667 0.26666,-0.26667 h 2.02667 q 0.26667,0 0.26667,0.26667 v 0.42666 q 0,0.0533 0.0533,0.08 0.0533,0 0.10667,-0.0533 0.96,-0.93333 2.4,-0.93333 z m 1.28,4.4 q 0,-0.96 -0.56,-1.57333 -0.53333,-0.61334 -1.38667,-0.61334 -0.85333,0 -1.38666,0.61334 -0.50667,0.61333 -0.50667,1.57333 v 5.20001 q 0,0.96 0.50667,1.57333 0.53333,0.61334 1.38666,0.61334 0.85334,0 1.38667,-0.61334 0.56,-0.61333 0.56,-1.57333 z m 11.44,-3.92 q 0,-0.26667 0.26667,-0.26667 h 2.02667 q 0.26667,0 0.26667,0.26667 v 13.04001 q 0,0.26667 -0.26667,0.26667 h -2.02667 q -0.26667,0 -0.26667,-0.26667 v -0.77333 q 0,-0.08 -0.0533,-0.08 -0.0267,0 -0.08,0.0533 -0.8,1.25334 -2.58667,1.25334 -1.6,0 -2.58667,-0.96 -0.96,-0.98667 -0.96,-2.98668 v -9.54667 q 0,-0.26667 0.26666,-0.26667 h 2.02667 q 0.26667,0 0.26667,0.26667 v 8.98667 q 0,2.29334 1.81334,2.29334 0.88,0 1.38666,-0.64 0.50667,-0.66667 0.50667,-1.81334 z m 10.21336,-0.4 q 0.64,0 1.17333,0.29333 0.16,0.10667 0.10667,0.34667 l -0.37334,2.02667 q -0.0267,0.24 -0.32,0.16 -0.34666,-0.13334 -0.74666,-0.13334 -0.16,0 -0.48,0.0533 -0.85334,0.08 -1.38667,0.90666 -0.53334,0.82667 -0.53334,2.00001 v 7.78667 q 0,0.26667 -0.26666,0.26667 h -2.02667 q -0.26667,0 -0.26667,-0.26667 v -13.04001 q 0,-0.26667 0.26667,-0.26667 h 2.02667 q 0.26666,0 0.26666,0.26667 v 1.54666 q 0,0.08 0.0267,0.08 0.0533,0 0.08,-0.0533 0.74667,-1.97333 2.45334,-1.97333 z m 3.92,-2.00001 q -0.74667,0 -1.22667,-0.48 -0.48,-0.48 -0.48,-1.22667 0,-0.74666 0.48,-1.22666 0.48,-0.48 1.22667,-0.48 0.77333,0 1.22667,0.48 0.48,0.45333 0.48,1.22666 0,0.74667 -0.48,1.22667 -0.48,0.48 -1.22667,0.48 z m -1.25333,2.40001 q 0,-0.26667 0.26666,-0.26667 h 2.02667 q 0.26667,0 0.26667,0.26667 v 13.04001 q 0,0.26667 -0.26667,0.26667 h -2.02667 q -0.26666,0 -0.26666,-0.26667 z m 10.16,1.33333 q 0,0.26667 -0.26666,0.26667 h -1.86667 q -0.10667,0 -0.10667,0.10666 v 7.49335 q 0,1.06667 0.37334,1.49333 0.37333,0.4 1.17333,0.37334 h 0.24 q 0.26667,0 0.26667,0.26666 v 1.70667 q 0,0.26667 -0.26667,0.26667 h -0.82667 q -1.70667,0 -2.58667,-0.66667 -0.85333,-0.66667 -0.85333,-2.53333 v -8.40002 q 0,-0.10666 -0.10667,-0.10666 h -1.04 q -0.26667,0 -0.26667,-0.26667 v -1.33333 q 0,-0.26667 0.26667,-0.26667 h 1.04 q 0.10667,0 0.10667,-0.10667 v -3.01334 q 0,-0.26666 0.26667,-0.26666 h 1.94666 q 0.26667,0 0.26667,0.26666 v 3.01334 q 0,0.10667 0.10667,0.10667 h 1.86667 q 0.26666,0 0.26666,0.26667 z m 1.20001,15.44002 q 0,-0.26667 0.26667,-0.26667 0.85333,-0.0267 1.33333,-0.26666 0.50667,-0.24 0.8,-0.90667 0.32,-0.66667 0.53334,-1.94667 l -0.0267,-0.13333 -3.38667,-13.22669 -0.0267,-0.08 q 0,-0.21333 0.26667,-0.21333 h 2.16 q 0.26667,0 0.29334,0.24 l 1.97333,9.62668 q 0.0267,0.08 0.0533,0.08 0.0267,0 0.0533,-0.08 l 1.89334,-9.62668 q 0.0533,-0.24 0.29333,-0.24 l 2.21333,0.0267 q 0.13334,0 0.18667,0.08 0.08,0.08 0.0267,0.21333 l -3.62667,14.18668 q -0.50667,1.84001 -1.01334,2.72001 -0.50666,0.90667 -1.41333,1.28 -0.90667,0.37333 -2.56001,0.37333 h -0.0267 q -0.26667,0 -0.26667,-0.26666 z m 10.29335,-12.45335 q 0,-0.26667 0.26667,-0.26667 h 6.45334 q 0.26667,0 0.26667,0.26667 v 1.68 q 0,0.26667 -0.26667,0.26667 h -6.45334 q -0.26667,0 -0.26667,-0.26667 z m 14.21336,-4.8 q 1.73333,0 2.74667,1.14666 1.04,1.12 1.04,3.09334 v 5.54667 q 0,1.89334 -1.04,3.06667 -1.01334,1.14667 -2.74667,1.14667 -0.64001,0 -1.30667,-0.24 -0.64,-0.24 -1.14667,-0.72 -0.0533,-0.0533 -0.10667,-0.0267 -0.0267,0.0267 -0.0267,0.08 v 0.42666 q 0,0.26667 -0.26667,0.26667 h -2.02667 q -0.26667,0 -0.26667,-0.26667 v -18.13335 q 0,-0.26667 0.26667,-0.26667 h 2.02667 q 0.26667,0 0.26667,0.26667 v 5.52 q 0,0.0533 0.0533,0.08 0.0533,0 0.10667,-0.0533 0.50666,-0.48 1.14666,-0.69333 0.64,-0.24 1.28001,-0.24 z m 1.25333,4.4 q 0,-0.96 -0.56,-1.57333 -0.53333,-0.61334 -1.38667,-0.61334 -0.82667,0 -1.36,0.61334 -0.53333,0.61333 -0.53333,1.57333 v 5.20001 q 0,0.96 0.53333,1.57333 0.53333,0.61334 1.36,0.61334 0.85334,0 1.38667,-0.61334 0.56,-0.61333 0.56,-1.57333 z m 8.96,-4.4 q 1.94667,0 3.17334,1.22666 1.25333,1.22667 1.25333,3.22667 v 9.06668 q 0,0.26667 -0.26667,0.26667 h -2.02667 q -0.26666,0 -0.26666,-0.26667 v -0.58667 q 0,-0.0533 -0.0533,-0.08 -0.0267,-0.0267 -0.08,0.0267 -0.96,1.12 -2.77333,1.12 -1.52,0 -2.66667,-0.85333 -1.14667,-0.88 -1.14667,-3.09334 0,-2.32 1.38667,-3.38667 1.41333,-1.09333 3.68,-1.09333 h 1.54667 q 0.10667,0 0.10667,-0.10667 v -0.77334 q 0,-1.09333 -0.56,-1.78666 -0.53334,-0.69334 -1.36,-0.69334 -0.66667,0 -1.12001,0.45334 -0.45333,0.45333 -0.53333,1.17333 0,0.26667 -0.26667,0.26667 h -2.18667 q -0.26666,0 -0.26666,-0.26667 0.13333,-1.70667 1.36,-2.77334 1.25333,-1.06666 3.06667,-1.06666 z m -0.45334,11.76001 q 0.93334,0 1.62667,-0.58667 0.69334,-0.58666 0.69334,-1.65333 v -1.81334 q 0,-0.10667 -0.10667,-0.10667 h -1.62667 q -1.06667,0 -1.70667,0.58667 -0.64,0.56 -0.64,1.65334 0,0.98667 0.48,1.46667 0.48,0.45333 1.28,0.45333 z m 12.29337,-9.94668 q 0,0.26667 -0.26667,0.26667 H 200.19 q -0.10667,0 -0.10667,0.10666 v 7.49335 q 0,1.06667 0.37334,1.49333 0.37333,0.4 1.17333,0.37334 h 0.24 q 0.26667,0 0.26667,0.26666 v 1.70667 q 0,0.26667 -0.26667,0.26667 h -0.82667 q -1.70666,0 -2.58667,-0.66667 -0.85333,-0.66667 -0.85333,-2.53333 v -8.40002 q 0,-0.10666 -0.10667,-0.10666 h -1.04 q -0.26667,0 -0.26667,-0.26667 v -1.33333 q 0,-0.26667 0.26667,-0.26667 h 1.04 q 0.10667,0 0.10667,-0.10667 v -3.01334 q 0,-0.26666 0.26667,-0.26666 h 1.94667 q 0.26666,0 0.26666,0.26666 v 3.01334 q 0,0.10667 0.10667,0.10667 h 1.86667 q 0.26667,0 0.26667,0.26667 z m 6.74667,-1.78667 q 1.65333,0 2.53333,1.14667 0.90667,1.12 0.90667,3.2 v 9.14668 q 0,0.26667 -0.26667,0.26667 h -2.02666 q -0.26667,0 -0.26667,-0.26667 v -8.93334 q 0,-1.12 -0.48,-1.73334 -0.45334,-0.61333 -1.33334,-0.61333 -0.69333,0 -1.17333,0.42667 -0.48,0.4 -0.64,1.14666 -0.0267,0.0267 -0.0267,0.10667 v 9.60001 q 0,0.26667 -0.26667,0.26667 h -2.02667 q -0.26666,0 -0.26666,-0.26667 v -18.13335 q 0,-0.26667 0.26666,-0.26667 H 206.03 q 0.26667,0 0.26667,0.26667 v 5.68 q 0,0.08 0.0533,0.10667 0.0533,0 0.10667,-0.08 0.93334,-1.06667 2.61334,-1.06667 z"
         id="path18" />
      <path
         d="m 100.52322,-135.31834 q 1.65334,0 2.53334,1.14667 0.90667,1.12 0.90667,3.2 v 9.14668 q 0,0.26667 -0.26667,0.26667 h -2.02667 q -0.26667,0 -0.26667,-0.26667 v -8.93334 q 0,-1.12 -0.48,-1.73334 -0.45333,-0.61333 -1.333331,-0.61333 -0.693334,0 -1.173335,0.42667 -0.48,0.4 -0.640001,1.14666 -0.02667,0.0267 -0.02667,0.10667 v 9.60001 q 0,0.26667 -0.266667,0.26667 h -2.02667 q -0.266667,0 -0.266667,-0.26667 v -18.13335 q 0,-0.26667 0.266667,-0.26667 h 2.02667 q 0.266667,0 0.266667,0.26667 v 5.68 q 0,0.08 0.05333,0.10667 0.05333,0 0.106667,-0.08 0.933334,-1.06667 2.613333,-1.06667 z m 5.59999,17.22669 q 0,-0.26667 0.26667,-0.26667 0.85333,-0.0267 1.33333,-0.26666 0.50667,-0.24 0.8,-0.90667 0.32,-0.66667 0.53334,-1.94667 l -0.0267,-0.13333 -3.38667,-13.22669 -0.0267,-0.08 q 0,-0.21333 0.26667,-0.21333 h 2.16 q 0.26667,0 0.29334,0.24 l 1.97333,9.62668 q 0.0267,0.08 0.0533,0.08 0.0267,0 0.0533,-0.08 l 1.89334,-9.62668 q 0.0533,-0.24 0.29333,-0.24 l 2.21333,0.0267 q 0.13334,0 0.18667,0.08 0.08,0.08 0.0267,0.21333 l -3.62667,14.18668 q -0.50667,1.84001 -1.01334,2.72001 -0.50666,0.90667 -1.41333,1.28 -0.90667,0.37333 -2.56001,0.37333 h -0.0267 q -0.26667,0 -0.26667,-0.26666 z m 15.7067,-17.25335 q 1.73334,0 2.74667,1.14666 1.04,1.12001 1.04,3.09334 v 5.54667 q 0,1.89334 -1.04,3.06668 -1.01333,1.14666 -2.74667,1.14666 -0.64,0 -1.30667,-0.24 -0.64,-0.24 -1.14667,-0.72 -0.0533,-0.0533 -0.10666,-0.0267 -0.0267,0.0267 -0.0267,0.08 v 0.42666 q 0,0.26667 -0.26667,0.26667 h -2.02666 q -0.26667,0 -0.26667,-0.26667 v -18.13335 q 0,-0.26667 0.26667,-0.26667 h 2.02666 q 0.26667,0 0.26667,0.26667 v 5.52 q 0,0.0533 0.0533,0.08 0.0533,0 0.10667,-0.0533 0.50667,-0.48 1.14667,-0.69333 0.64,-0.24 1.28,-0.24 z m 1.25334,4.4 q 0,-0.96 -0.56,-1.57333 -0.53334,-0.61334 -1.38667,-0.61334 -0.82667,0 -1.36,0.61334 -0.53334,0.61333 -0.53334,1.57333 v 5.20001 q 0,0.96 0.53334,1.57333 0.53333,0.61334 1.36,0.61334 0.85333,0 1.38667,-0.61334 0.56,-0.61333 0.56,-1.57333 z m 9.76,-4.32 q 0.64,0 1.17333,0.29333 0.16,0.10667 0.10667,0.34667 l -0.37334,2.02667 q -0.0267,0.24 -0.32,0.16 -0.34666,-0.13334 -0.74666,-0.13334 -0.16,0 -0.48001,0.0533 -0.85333,0.08 -1.38666,0.90666 -0.53334,0.82667 -0.53334,2.00001 v 7.78667 q 0,0.26667 -0.26666,0.26667 h -2.02667 q -0.26667,0 -0.26667,-0.26667 V -134.865 q 0,-0.26667 0.26667,-0.26667 h 2.02667 q 0.26666,0 0.26666,0.26667 v 1.54666 q 0,0.08 0.0267,0.08 0.0533,0 0.08,-0.0533 0.74667,-1.97333 2.45334,-1.97333 z m 3.91999,-2.00001 q -0.74666,0 -1.22666,-0.48 -0.48,-0.48 -0.48,-1.22667 0,-0.74666 0.48,-1.22666 0.48,-0.48 1.22666,-0.48 0.77334,0 1.22667,0.48 0.48,0.45333 0.48,1.22666 0,0.74667 -0.48,1.22667 -0.48,0.48 -1.22667,0.48 z m -1.25333,2.40001 q 0,-0.26667 0.26667,-0.26667 h 2.02667 q 0.26666,0 0.26666,0.26667 v 13.04001 q 0,0.26667 -0.26666,0.26667 h -2.02667 q -0.26667,0 -0.26667,-0.26667 z m 11.46668,-5.09334 q 0,-0.26667 0.26667,-0.26667 h 2.02667 q 0.26666,0 0.26666,0.26667 v 18.13335 q 0,0.26667 -0.26666,0.26667 h -2.02667 q -0.26667,0 -0.26667,-0.26667 v -0.4 q 0,-0.0533 -0.0533,-0.08 -0.0267,-0.0267 -0.08,0.0267 -0.50667,0.48 -1.17334,0.72 -0.64,0.21333 -1.25333,0.21333 -1.73334,0 -2.77334,-1.14666 -1.01333,-1.17334 -1.01333,-3.06668 v -5.54667 q 0,-1.97333 1.01333,-3.09334 1.01334,-1.14666 2.77334,-1.14666 0.61333,0 1.25333,0.24 0.66667,0.24 1.17334,0.72 0.0533,0.0533 0.08,0.0267 0.0533,-0.0267 0.0533,-0.08 z m -1.86667,16.40002 q 0.74667,0 1.25334,-0.48 0.50666,-0.50667 0.61333,-1.30667 v -6.00001 q -0.10667,-0.8 -0.61333,-1.28 -0.50667,-0.50667 -1.25334,-0.50667 -0.85333,0 -1.41333,0.61334 -0.53334,0.61333 -0.53334,1.57333 v 5.20001 q 0,0.96 0.53334,1.57333 0.56,0.61334 1.41333,0.61334 z m 8.05334,-13.70669 q -0.74667,0 -1.22667,-0.48 -0.48,-0.48 -0.48,-1.22667 0,-0.74666 0.48,-1.22666 0.48,-0.48 1.22667,-0.48 0.77334,0 1.22667,0.48 0.48,0.45333 0.48,1.22666 0,0.74667 -0.48,1.22667 -0.48,0.48 -1.22667,0.48 z m -1.25333,2.40001 q 0,-0.26667 0.26666,-0.26667 h 2.02667 q 0.26667,0 0.26667,0.26667 v 13.04001 q 0,0.26667 -0.26667,0.26667 h -2.02667 q -0.26666,0 -0.26666,-0.26667 z m 8.64001,13.46668 q -2,0 -3.17334,-0.96 -1.14667,-0.98667 -1.14667,-2.64 v -0.24 q 0,-0.26667 0.26667,-0.26667 h 1.89334 q 0.26666,0 0.26666,0.26667 v 0.18666 q 0,0.72 0.56,1.22667 0.56,0.48 1.38667,0.48 0.8,0 1.28,-0.48 0.50667,-0.48 0.50667,-1.22667 0,-0.58667 -0.34667,-0.98667 -0.34666,-0.4 -0.82666,-0.61333 -0.45334,-0.24 -1.41334,-0.64 -1.04,-0.45333 -1.73334,-0.88 -0.66666,-0.42667 -1.2,-1.22667 -0.53333,-0.8 -0.53333,-2.02667 0,-1.81333 1.12,-2.82667 1.14667,-1.01333 3.06667,-1.01333 1.97334,0 3.09334,1.04 1.14667,1.04 1.14667,2.82667 v 0.08 q 0,0.26666 -0.26667,0.26666 h -1.84 q -0.26667,0 -0.26667,-0.26666 v -0.18667 q 0,-0.72 -0.50667,-1.22667 -0.50666,-0.50666 -1.30667,-0.50666 -0.82666,0 -1.30666,0.50666 -0.48,0.50667 -0.48,1.22667 0,0.56 0.32,0.93334 0.32,0.37333 0.74666,0.61333 0.45334,0.21333 1.44001,0.64 1.09333,0.48 1.81333,0.93333 0.74667,0.42667 1.28,1.22667 0.56,0.8 0.56,2.00001 0,1.73333 -1.2,2.74667 -1.17333,1.01333 -3.2,1.01333 z m 10.50667,-13.94668 q 1.94667,0 3.17334,1.22666 1.25333,1.22667 1.25333,3.22667 v 9.06668 q 0,0.26667 -0.26666,0.26667 h -2.02667 q -0.26667,0 -0.26667,-0.26667 v -0.58666 q 0,-0.0533 -0.0533,-0.08 -0.0267,-0.0267 -0.08,0.0267 -0.96,1.12 -2.77334,1.12 -1.52,0 -2.66667,-0.85333 -1.14667,-0.88 -1.14667,-3.09334 0,-2.32 1.38667,-3.38667 1.41334,-1.09333 3.68,-1.09333 h 1.54667 q 0.10667,0 0.10667,-0.10667 v -0.77333 q 0,-1.09334 -0.56,-1.78667 -0.53333,-0.69334 -1.36,-0.69334 -0.66667,0 -1.12,0.45334 -0.45334,0.45333 -0.53334,1.17333 0,0.26667 -0.26666,0.26667 h -2.18667 q -0.26667,0 -0.26667,-0.26667 0.13333,-1.70667 1.36,-2.77334 1.25334,-1.06666 3.06667,-1.06666 z m -0.45333,11.76001 q 0.93333,0 1.62667,-0.58667 0.69333,-0.58666 0.69333,-1.65333 v -1.81334 q 0,-0.10666 -0.10667,-0.10666 h -1.62667 q -1.06666,0 -1.70666,0.58666 -0.64,0.56 -0.64,1.65334 0,0.98667 0.48,1.46667 0.48,0.45333 1.28,0.45333 z m 12.29336,-9.94668 q 0,0.26667 -0.26667,0.26667 h -1.86667 q -0.10666,0 -0.10666,0.10667 v 7.49334 q 0,1.06667 0.37333,1.49333 0.37333,0.4 1.17333,0.37334 h 0.24 q 0.26667,0 0.26667,0.26666 v 1.70667 q 0,0.26667 -0.26667,0.26667 h -0.82666 q -1.70667,0 -2.58667,-0.66667 -0.85334,-0.66667 -0.85334,-2.53333 v -8.40001 q 0,-0.10667 -0.10666,-0.10667 h -1.04001 q -0.26666,0 -0.26666,-0.26667 v -1.33333 q 0,-0.26667 0.26666,-0.26667 h 1.04001 q 0.10666,0 0.10666,-0.10667 v -3.01333 q 0,-0.26667 0.26667,-0.26667 h 1.94667 q 0.26667,0 0.26667,0.26667 v 3.01333 q 0,0.10667 0.10666,0.10667 h 1.86667 q 0.26667,0 0.26667,0.26667 z m 2.66667,-3.73334 q -0.74667,0 -1.22667,-0.48 -0.48,-0.48 -0.48,-1.22667 0,-0.74666 0.48,-1.22666 0.48,-0.48 1.22667,-0.48 0.77333,0 1.22666,0.48 0.48,0.45333 0.48,1.22666 0,0.74667 -0.48,1.22667 -0.48,0.48 -1.22666,0.48 z m -1.25334,2.40001 q 0,-0.26667 0.26667,-0.26667 h 2.02667 q 0.26666,0 0.26666,0.26667 v 13.04001 q 0,0.26667 -0.26666,0.26667 h -2.02667 q -0.26667,0 -0.26667,-0.26667 z m 9.14668,13.52001 q -2.08,0 -3.30667,-1.14666 -1.2,-1.17334 -1.2,-3.09334 v -5.52001 q 0,-1.89333 1.22667,-3.06667 1.22667,-1.17333 3.28,-1.17333 2.08001,0 3.28001,1.17333 1.22667,1.17334 1.22667,3.06667 v 5.52001 q 0,1.94667 -1.22667,3.09334 -1.2,1.14666 -3.28001,1.14666 z m 0,-2.24 q 0.85334,0 1.38667,-0.58667 0.56,-0.61333 0.56,-1.6 v -5.17334 q 0,-0.96 -0.56,-1.57333 -0.53333,-0.61334 -1.38667,-0.61334 -0.88,0 -1.41333,0.61334 -0.53334,0.61333 -0.53334,1.57333 v 5.17334 q 0,0.98667 0.53334,1.6 0.53333,0.58667 1.41333,0.58667 z m 11.92002,-11.73335 q 1.65334,0 2.53334,1.14667 0.90666,1.12 0.90666,3.2 v 9.14668 q 0,0.26667 -0.26666,0.26667 h -2.02667 q -0.26667,0 -0.26667,-0.26667 v -8.93334 q 0,-1.12 -0.48,-1.73334 -0.45333,-0.61333 -1.33333,-0.61333 -0.69334,0 -1.17334,0.42667 -0.48,0.4 -0.64,1.14666 -0.0267,0.0267 -0.0267,0.10667 v 9.60001 q 0,0.26667 -0.26666,0.26667 H 200.31 q -0.26667,0 -0.26667,-0.26667 V -134.865 q 0,-0.26667 0.26667,-0.26667 h 2.02667 q 0.26666,0 0.26666,0.26667 v 0.58666 q 0,0.08 0.0533,0.10667 0.0533,0 0.10666,-0.08 0.93334,-1.06667 2.61334,-1.06667 z"
         id="path19" />
    </g>
    <g
       id="path17-1"
       style="opacity:1"
       transform="translate(300.96426,27.589403)">
      <g
         id="g24">
        <path
           d="m 10.928415,58.807612 1.327328,-2.654654 a 0.41335,0.41335 0 0 1 0.739422,0 l 1.327328,2.654654 a 0.51092871,0.51092871 0 0 1 -0.456989,0.739423 h -2.4801 a 0.51092871,0.51092871 0 0 1 -0.456989,-0.739423 z"
           style="baseline-shift:baseline;display:inline;overflow:visible;vector-effect:none;fill:#ffffff;fill-rule:evenodd;enable-background:accumulate;stop-color:#000000;stop-opacity:1"
           id="path24" />
      </g>
      <path
         style="baseline-shift:baseline;display:inline;overflow:visible;vector-effect:none;fill:#ffffff;paint-order:markers stroke fill;enable-background:accumulate;stop-color:#000000;stop-opacity:1"
         d="m 12.035156,58.720703 v 4.322266 h 1.181641 v -4.322266 z"
         id="path25" />
      <path
         style="baseline-shift:baseline;display:inline;overflow:visible;vector-effect:none;fill:#ffffff;paint-order:markers stroke fill;enable-background:accumulate;stop-color:#000000;stop-opacity:1"
         d="M 12.625454,63.043347 V 58.720335"
         id="path26" />
    </g>
  </g>
</svg>
